<?xml version="1.0" standalone="no"?>
<!DOCTYPE svg PUBLIC "-//W3C//DTD SVG 1.1//EN" "http://www.w3.org/Graphics/SVG/1.1/DTD/svg11.dtd">
<svg xmlns="http://www.w3.org/2000/svg">
<metadata>Copyright (C) 2017 by original authors @ fontello.com</metadata>
<defs>
<font id="magic" horiz-adv-x="1000" >
<font-face font-family="magic" font-weight="400" font-stretch="normal" units-per-em="1000" ascent="850" descent="-150" />
<missing-glyph horiz-adv-x="1000" />
<glyph glyph-name="search" unicode="&#xe800;" d="M643 386q0 103-73 176t-177 74-177-74-73-176 73-177 177-73 177 73 73 177z m286-465q0-29-22-50t-50-21q-30 0-50 21l-191 191q-100-69-223-69-80 0-153 31t-125 84-84 125-31 153 31 152 84 126 125 84 153 31 153-31 125-84 84-126 31-152q0-123-69-223l191-191q21-21 21-51z" horiz-adv-x="928.6" />

<glyph glyph-name="trend" unicode="&#xe801;" d="M859 631c8 0 16 8 16 16v125c0 8-8 16-16 16h-46v46c0 8-8 16-16 16h-703c-52 0-94-42-94-94v-812c0-52 42-94 94-94h703c8 0 16 8 16 16v46h-32v-31h-687c-35 0-63 28-63 63h766c8 0 16 8 16 15v297h46c8 0 16 8 16 16v125c0 8-8 16-16 16h-46v31h46c8 0 16 8 16 15v125c0 8-8 16-16 16h-46v31h46z m-46 125h31v-93h-31v93z m-688-781h-94v781c0 35 28 63 63 63h31v-844z m656 0h-625v188h625v-188z m0 219h-625v437h625v-437z m0 469h-625v156h625v-156z m63-282v-93h-31v93h31z m0 188v-94h-31v94h31z m-375 0c-86 0-156-71-156-156s70-157 156-157c37 0 73 13 101 38l-20 23c-23-19-52-29-81-29-69 0-125 56-125 125s56 125 125 125 125-57 125-125v-32c0 0-11-23-24-23s-23 23-23 23v110h-31v-16c-13 9-30 16-47 16-44 0-78-35-78-78s34-79 78-79c22 0 42 10 56 24 9-16 27-31 45-31 30 0 55 39 55 54v32c0 85-70 156-156 156z m0-203c-27 0-47 20-47 47s20 46 47 46 47-20 47-46-21-47-47-47z m-78-266h31v-31h-31v31z m62 0h31v-31h-31v31z m63 0h31v-31h-31v31z m-453 688h31v-782h-31v782z" horiz-adv-x="875" />

<glyph glyph-name="down-open-big" unicode="&#xe802;" d="M63 570l370-356 372 356q22 26 48 0 26-22 0-48l-396-392q-22-22-48 0l-396 392q-26 26 0 48 24 24 50 0z" horiz-adv-x="866" />

<glyph glyph-name="up-open-big" unicode="&#xe803;" d="M804 130l-372 358-370-358q-26-22-50 0-24 24 0 50l396 390q26 26 48 0l396-390q24-26 0-50-26-22-48 0z" horiz-adv-x="864" />

<glyph glyph-name="goals" unicode="&#xe804;" d="M266-150h-188c-8 0-15 7-15 16v62c0 9 7 16 15 16h188c8 0 15-7 15-16v-62c0-9-7-16-15-16z m-172 31h156v31h-156v-31z m422 453c-95 0-172 78-172 172s77 172 172 172 172-77 172-172-78-172-172-172z m0 313c-78 0-141-63-141-141s63-140 141-140 140 63 140 140-63 141-140 141z m218-406h-593v31h587l234 234-234 235h-587v31h593c5 0 9-2 11-5l250-250c7-6 7-16 0-22l-250-250c-2-3-6-4-11-4z m-234 203c-4 0-8 1-11 4l-62 63 22 22 51-51 83 82 22-22-94-94c-3-3-7-4-11-4z m-297-532h-62c-9 0-16 7-16 16v875c0 26 21 47 47 47s47-21 47-47v-47h-31v47c0 9-7 16-16 16s-16-7-16-16v-859h32v312h31v-328c0-9-7-16-16-16z" horiz-adv-x="1000" />

<glyph glyph-name="client" unicode="&#xe805;" d="M531 506h63v-31h-63v31z m217-212l-92 231v139c44 8 78 45 78 92 0 52-42 94-93 94h-485c-86 0-156-70-156-156v-485c0-51 42-93 94-93h31v-266h31v359h-31v-62h-31c-35 0-63 28-63 62v485c0 69 57 125 125 125h485c34 0 62-28 62-63s-28-62-62-62h-188c-44 0-78-35-78-78v-188c0-17-14-31-31-31s-31 14-31 31v31c0 52-43 94-94 94s-94-42-94-94v-187h31v187c0 35 28 63 63 63s62-28 62-63v-31c0-34 28-62 63-62s62 28 62 62v188c0 26 21 47 47 47h172v-141c0-2 0-5 2-6l92-232v-12h-78c-8 0-16-8-16-16v-78h-56l-27 27-22-22 32-31c3-4 7-5 11-5h62v-47c0-44-34-78-78-78h-188c-26 0-46 20-46 47h-32c0-44 35-78 78-78h110v-141h31v141h47c61 0 109 48 109 109v141h78c8 0 16 7 16 15v32c0 1 0 3-2 6z m-639 384h-31c0 52 42 94 94 94v-31c-34 0-63-28-63-63z" horiz-adv-x="750" />

<glyph glyph-name="landing" unicode="&#xe806;" d="M1000-119v-31h-1000v31h47v-15h31v15h844v-15h31v15h47z m-953 969v-984h31v828h-15v31h15v94h219v15h31v-15h594v-94h16v-31h-16v-828h31v984h-906z m281-125v-16h-31v16h-234v-31h875v31h-610z m-187 63h-32v-32h32v32z m62 0h-31v-32h31v32z m63 0h-32v-32h32v32z m31 46v-125h31v125h-31z m594-46h-532v-32h532v32z m0-125h-782v-219h782v219z m-750-32h718v-156h-718v156z m375-62h-32v-31h32v31z m-63 0h-31v-31h31v31z m125 0h-31v-31h31v31z m-234-188h-235v-156h235v156z m-203-31h172v-94h-172v94z m484 31h-250v-156h250v156z m-219-31h188v-94h-188v94z m485 31h-235v-156h235v156z m-203-31h171v-94h-171v94z m-344-156h-235v-31h235v31z m0-63h-235v-31h235v31z m0-62h-235v-31h235v31z m265 125h-234v-31h234v31z m0-63h-234v-31h234v31z m0-62h-234v-31h234v31z m282 125h-235v-31h235v31z m0-63h-235v-31h235v31z m0-62h-235v-31h235v31z m0-125h-782v-32h782v32z" horiz-adv-x="1000" />

<glyph glyph-name="close" unicode="&#xe80d;" d="M640 34l-286 293-291-293h-55l315 317-315 315h55l291-289 286 289h55l-311-315 311-317h-55z" horiz-adv-x="707" />

<glyph glyph-name="highlight" unicode="&#xe830;" d="M622 156c-5 3-24 11-40 19l-10 4c-7 3-19 12-30 24 0 0 0 0 0 0 0 0 0 1 0 2 0 3 0 3 0 4 0 1 0 1 0 2 2 4 4 8 6 12 1 2 2 6 3 7 8 8 16 18 18 31 3 13-1 20-2 23 0 0 0 0 0 0 0 13 0 26-3 36 0 15-3 23-10 31-5 6-12 7-17 8-2 0-4 1-5 1-9 5-18 8-28 8-1 0-2 0-2 0l-1 0c-1 0-1 0-2 0-27-2-52-20-60-45-3-8-3-20-3-34 0-2 0-4 0-5 0 0 0 0 0 0-2-4-5-10-2-23 3-13 11-23 18-31 1-1 2-4 3-7 1-4 3-9 6-12 0-1 0-1 0-2 0-2 0-2 0-6 0 0 0-1 0-1-12-12-23-21-31-25l-10-5c-20-9-35-16-40-18-21-11-28-19-28-29v-27c0-5 3-9 7-11 2-1 48-20 143-20 95 0 141 19 143 20 4 2 7 6 7 11v27c-2 12-10 20-30 31z m-122-206c-149 0-270 121-270 270 0 149 121 270 270 270 149 0 270-121 270-270 0-149-121-270-270-270z m0 500c-127 0-230-103-230-230 0-127 103-230 230-230 127 0 230 103 230 230 0 127-103 230-230 230z m-320 140c39 0 70-31 70-70s-31-70-70-70-70 31-70 70 31 70 70 70z m640 0c39 0 70-31 70-70s-31-70-70-70-70 31-70 70 31 70 70 70z m-750-300c39 0 70-31 70-70s-31-70-70-70-70 31-70 70 31 70 70 70z m860 0c39 0 70-31 70-70s-31-70-70-70-70 31-70 70 31 70 70 70z m-110-300c39 0 70-31 70-70s-31-70-70-70-70 31-70 70 31 70 70 70z m-640 0c39 0 70-31 70-70s-31-70-70-70-70 31-70 70 31 70 70 70z m274 851c34 15 75 12 107-7 31-19 53-52 56-88h33c-17-19-35-38-53-57-18 19-35 38-53 57h31c-5 33-33 60-66 64-26 4-54-7-70-28-11 8-22 16-32 24 12 15 29 27 47 35z m-52-64c18-19 35-38 53-57h-31c5-34 34-62 68-64 26-3 53 9 69 30 11-8 21-16 32-24-20-26-51-43-83-46-26-2-52 4-74 18-30 19-50 52-54 87h-32c17 18 35 37 52 56z" horiz-adv-x="1000" />

<glyph glyph-name="key" unicode="&#xe831;" d="M439 207l-85-84h-58c-13 0-23-10-23-23v-45h-46c-12 0-22-10-22-23v-46h-46c-12 0-23-10-23-22v-59l-9-10h-81v82l379 380c9 9 9 23 0 32l-6 7c-7 6-10 14-10 23v0c0 12-10 22-23 22s-22-10-22-22c0-17 5-32 14-45l-371-371c-5-5-7-11-7-17v-113c0-13 10-23 23-23h113c6 0 12 2 16 7l23 22c4 5 7 10 7 16v46h45c13 0 23 10 23 23v45h46c12 0 22 10 22 23v45h46c6 0 12 3 16 7l91 91c9 9 9 23 0 32-9 9-24 9-32 0z m334 254c19 0 37 8 50 21 28 28 28 73 0 101l-91 91c-27 26-74 26-100 0-28-28-28-73 0-101l91-91c13-13 31-21 50-21z m-109 180c5 5 11 8 18 8s13-3 18-8l91-91c10-10 10-26 0-36-10-9-27-9-36 0l-91 91c-10 10-10 26 0 36z m313-76l-263 263c-29 29-80 29-110 0l-218-218c-14-15-22-34-22-55 0-21 8-40 22-55l218-218-13-13c-6-6-14-10-23-10h0c-8 0-16 4-22 10l-64 63c-9 9-23 9-32 0l-125-125c-9-9-9-23 0-32 4-4 10-7 16-7s12 3 16 7l109 109 47-47c15-15 35-23 55-23 0 0 0 0 0 0 21 0 40 8 55 23l29 29c9 9 9 23 0 32l-233 234c-7 6-10 15-10 23 0 9 3 17 10 23l217 218c13 12 34 12 46 0l263-264c6-6 10-14 10-22s-4-17-10-23l-218-218c-6-6-14-10-22-10-13 0-23-10-23-22s10-23 23-23c20 0 40 8 54 23l218 218c15 14 23 34 23 55 0 20-8 40-23 55z" horiz-adv-x="1000" />

<glyph glyph-name="idea" unicode="&#xe832;" d="M500-150c-65 0-119 50-124 114l-1 6 0 7c-2 39-2 47-71 135l-5 8c-32 43-49 94-49 147 0 138 112 250 250 250s250-112 250-250c0-53-17-104-49-147l-5-8c-69-88-69-96-71-135l0-7-1-6c-5-64-59-114-124-114z m-42 128l1-5c1-22 19-40 41-40 22 0 41 18 41 40l1 5 0 2c2 60 10 83 83 176l5 8c24 30 37 66 37 103 0 92-75 166-167 166s-167-74-167-166c0-37 13-73 37-103l5-8c73-93 81-116 83-176l0-2z m125-3h-166c-23 0-42 19-42 42s19 41 42 41h166c23 0 42-18 42-41s-19-42-42-42z m167 0c-11 0-22 5-30 12-7 8-12 19-12 30 0 11 5 21 12 29 16 16 44 16 60 0 7-8 12-18 12-29 0-11-5-22-12-30-8-7-19-12-30-12z m83 250c-10 0-21 5-29 12-8 8-12 18-12 30 0 11 4 21 12 29 15 16 43 16 59 0 7-8 12-18 12-29 0-12-5-22-12-30-8-7-19-12-30-12z m125 0c-10 0-21 5-29 12-8 8-12 19-12 30 0 11 4 21 12 29 15 16 44 16 59 0 7-8 12-18 12-29 0-11-5-22-12-30-8-7-19-12-30-12z m-916 0c-11 0-22 5-30 12-7 8-12 19-12 30s5 21 12 29c16 16 43 16 59 0 8-8 12-18 12-29s-4-22-12-30c-8-7-18-12-29-12z m125 0c-11 0-22 5-30 12-7 8-12 19-12 30s5 21 12 29c16 16 43 16 59 0 8-8 12-18 12-29s-4-22-12-30c-8-7-18-12-29-12z m83-250c-11 0-22 5-30 12-7 8-12 19-12 30 0 11 5 21 12 29 16 16 44 16 60 0 7-8 12-18 12-29s-5-22-12-30c-8-7-19-12-30-12z m500 500c-11 0-22 5-30 12-7 8-12 19-12 30 0 11 5 21 12 29 16 16 44 16 60 0 7-8 12-18 12-29 0-11-5-22-12-30-8-7-19-12-30-12z m125 125c-11 0-22 5-30 12-7 8-12 19-12 30 0 11 5 21 12 29 16 16 44 16 60 0 7-8 12-18 12-29 0-11-5-22-12-30-8-7-19-12-30-12z m-750 0c-11 0-22 5-30 12-7 8-12 18-12 30 0 11 5 21 12 29 16 16 44 16 60 0 7-8 12-18 12-29 0-11-5-22-12-30-8-7-19-12-30-12z m125-125c-11 0-22 5-30 12-7 8-12 19-12 30 0 11 5 21 12 29 16 16 44 16 60 0 7-8 12-18 12-29 0-11-5-22-12-30-8-7-19-12-30-12z m250 83c-11 0-22 5-30 12-7 8-12 19-12 30 0 11 5 22 12 30 16 15 44 15 60 0 7-8 12-19 12-30 0-11-5-22-12-30-8-7-19-12-30-12z m0 167c-11 0-22 5-30 12-7 8-12 19-12 30 0 11 5 21 12 29 16 16 44 16 60 0 7-8 12-18 12-29 0-11-5-22-12-30-8-7-19-12-30-12z" horiz-adv-x="1000" />

<glyph glyph-name="radar" unicode="&#xe833;" d="M983 270l-247 248 86 86a115 115 0 0 1 26-4 102 102 0 1 1-96 74l-87-86-247 248a50 50 0 0 1-71 0 450 450 0 0 1 636-637 49 49 0 0 1 15 35 51 51 0 0 1-15 36z m-318-102a350 350 0 0 0-280 559l490-490a349 349 0 0 0-210-69z m-432 68a51 51 0 0 1-43 13 50 50 0 0 1-37-26l-150-301a50 50 0 0 1 2-48 51 51 0 0 1 43-24h450a50 50 0 0 1 35 86z m-104-286l83 166 165-166h-248z" horiz-adv-x="998" />

<glyph glyph-name="right-small" unicode="&#xe834;" d="M1147 303a96 96 0 0 0-7-9c-17-17-33-35-51-52q-177-187-354-371a64 64 0 0 0-93 0 72 72 0 0 0 0 97c17 18 34 36 50 53l248 259h-874a69 69 0 0 0-66 70 68 68 0 0 0 66 69h875l-301 314a73 73 0 0 0 0 98 66 66 0 0 0 93 0c17-18 34-36 50-53q178-186 355-371a83 83 0 0 0 8-11 79 79 0 0 0 19-46 69 69 0 0 0-18-47z" horiz-adv-x="1165" />

<glyph glyph-name="left-small" unicode="&#xe835;" d="M18 303a56 56 0 0 1 7-9c17-17 33-35 51-52q177-186 355-371a65 65 0 0 1 93 0 72 72 0 0 1 0 97c-17 18-34 35-51 53-82 87-165 173-248 260h876a69 69 0 0 1 0 137h-877q151 158 302 315a73 73 0 0 1 0 98 66 66 0 0 1-94 0c-16-18-33-35-50-53l-355-371a83 83 0 0 1-9-11 79 79 0 0 1-18-47 67 67 0 0 1 18-46z" horiz-adv-x="1167" />

<glyph glyph-name="arr-down" unicode="&#xe836;" d="M452-131a40 40 0 0 0-9 7c-18 17-35 34-52 51-125 123-248 244-372 366a69 69 0 0 0 0 96 71 71 0 0 0 98 0c18-18 35-35 53-52 86-85 173-171 260-256v701a70 70 0 0 0 69 68 70 70 0 0 0 69-68v-701c105 103 210 207 315 310a71 71 0 0 0 97 0 69 69 0 0 0 0-96c-17-18-35-35-52-52q-186-183-372-365a35 35 0 0 0-10-9 77 77 0 0 0-47-19 63 63 0 0 0-47 19z" horiz-adv-x="1000" />

<glyph glyph-name="food" unicode="&#xe839;" d="M547 444c-5 0-8 1-11 4-6 7-6 16 0 22l23 24c-9 23-14 64 24 101l203 203c6 7 16 7 22 0s6-15 0-21l-203-204c-38-37-14-71-14-73l7-11-40-41c-3-3-6-4-11-4z m-99-230c7 6 7 16 0 22s-15 6-21 0l-293-292h-18l-22 22v18l245 246c6 6 6 15 0 22s-16 6-22 0l-254-255v-44l40-41h44l301 302z m172 172l24 23c23-9 64-14 101 24l203 203c7 6 7 16 0 22s-15 6-21 0l-204-203c-35-36-70-16-73-14l-11 7-41-40c-6-6-6-16 0-22 4-3 8-5 11-5s8 2 11 5z m32 141l203 203c6 6 6 15 0 22s-16 6-22 0l-203-204c-7-6-7-15 0-21 3-4 8-5 11-5s7 1 11 5z m46-47l204 203c6 6 6 15 0 22s-16 6-22 0l-203-203c-7-7-7-16 0-22 3-3 7-5 11-5s7 2 10 5z m240-483v-44l-41-41h-44l-359 360h-125l-52 51c0 0 0 0 0 0 0 0 0 0 0 2l-45 45c0 0 0 0 0 0 0 0 0 0 0 0l-45 46c0 0 0 0 0 0 0 0 0 0 0 0l-47 47 0 0 0 0-32 31c-4 4-9 9-14 14-1 1-3 3-3 3 0 0 0 0 0 0-65 67-68 86-68 136 0 84 65 136 68 137l11 8 796-795z m-32-13l-765 766c-16-16-47-53-47-103 0-38 0-52 47-103l20 20c6 6 16 6 22 0 6-6 6-16 0-22l-20-20c1-2 3-3 4-5l21-20 20 20c6 6 15 6 22 0 6-6 6-15 0-22l-21-20 25-25 21 20c6 7 15 7 22 0 6-6 6-15 0-22l-21-20 25-25 21 20c6 7 15 7 21 0 7-6 7-15 0-21l-20-21 25-25 20 21c7 6 16 6 22 0 7-7 7-16 0-22l-20-21 31-31h125l360-359h18l22 22v18z m-778 529c0 0 2-2 2-4 0 0 1-1 1-1-1 3-3 5-3 5z m-20-419c-50 75-77 164-77 256 0 58 11 113 30 166l-30 11c-20-57-31-116-31-177 0-98 28-192 81-273l27 17z m665-163l-17 27c-75-50-164-77-256-77-92 0-181 27-258 77l-17-27c83-53 177-81 275-81 98 0 192 28 273 81z m227 419c0 72-16 142-45 208l-28-13c28-61 42-126 42-195 0-92-27-181-77-258l27-17c53 83 81 177 81 275z m-500 469c72 0 141-16 205-47l14 28c-69 33-142 50-219 50-98 0-192-28-273-81l17-27c75 50 164 77 256 77z" horiz-adv-x="1000" />

<glyph glyph-name="waste" unicode="&#xe83a;" d="M789-119c5 10 8 21 8 31v572l26 27c4 3 5 6 5 11v172h47c8 0 16 8 16 15 0 61-49 110-110 110h-197l-26 26c-3 3-6 5-11 5h-125c-5 0-8-2-11-5l-27-26h-212c-34 0-63-28-63-63v-47c0-7 8-15 16-15h16v-172c0-5 1-8 4-11l27-27v-426c-19-22-31-52-31-83 0-38 15-70 42-94h-183v-31h703v31h-355c27 24 43 56 43 94 0 69-57 125-125 125-24 0-44-6-63-17v408c0 4-1 7-5 11l-26 26v103h203v32h-203v31h31v31h-62v31c0 17 14 32 31 32h219c4 0 7 1 11 4l26 27h113l26-27c3-3 6-4 11-4h203c38 0 69-27 77-63h-624v-31h563v-31h-203v-32h203v-103l-27-26c-3-4-4-7-4-11v-579c0-17-14-31-32-31v-31h266v31h-211z m-523 188c51 0 93-42 93-94s-42-94-93-94-94 42-94 94 42 94 94 94z m15-110h-31v32h31v-32z m360 360c0-86-71-156-157-156s-156 70-156 156 70 156 156 156c43 0 82-17 110-45v45h31v-94c0-8-8-15-16-15h-93v31h65c-23 30-58 47-97 47-68 0-125-56-125-125s57-125 125-125 125 56 125 125h32z m-141 312h-31v32h31v-32z m-62 0h-32v32h32v-32z m125 0h-32v32h32v-32z" horiz-adv-x="1000" />

<glyph glyph-name="box" unicode="&#xe83b;" d="M953 465l110 142c4 3 4 10 4 15-2 5-5 8-10 11l-384 150c-8 4-16 0-20-6l-66-117 28-17 60 105 350-136-95-124-322 114-11-32 291-102-355-150-353 147 292 102-12 31-322-111-95 123 350 137 60-105 29 16-67 117c-5 7-13 10-20 7l-383-150c-5-2-9-7-10-12-2-3-2-10 1-13l110-142-111-223c-2-5-2-9 0-14s5-8 10-10l383-150c2 0 3-1 7-1 5 0 11 3 13 8l103 167v-350l-368 136v89h-33v-100c0-7 5-14 11-15l399-150c0 0 1 0 1 0 2 0 4-2 5-2s4 0 5 2l400 150c7 3 12 8 12 15v100h-33v-89l-367-138v350l103-167c4-5 9-8 14-8 1 0 5 0 6 2l384 150c5 1 8 5 10 10 1 5 1 10 0 13l-114 225z m-560-362l-353 139 102 203 368-153-117-189z m280 0l-115 189 369 153 101-203-355-139z m-61 352l-67-67c-3-3-7-5-12-5s-8 2-11 5l-67 67 23 23 39-38v410h33v-410l38 38 24-23z" horiz-adv-x="1067" />

<glyph glyph-name="events" unicode="&#xe83c;" d="M938 163l-219-68c0 2 0 3 0 5 0 34-28 63-63 63h-137l-172 62h-128c0 17-14 31-31 31h-188v-31h188v-281h-188v-32h188c17 0 31 15 31 32h59l263-92 3-2h37l394 205 5 3c1 1 20 20 20 42 0 34-28 63-62 63z m21-82l-384-200h-25l-266 94h-65v219h122l172-63h143c17 0 32-14 32-31 0-6-2-11-5-16-6-9-16-15-27-15h-172c-34 0-62-28-62-63h31c0 17 14 32 31 32h172c17 0 35 7 46 18l237 75c16-1 30-14 30-31 0-5-5-14-10-19z m-76 269c33 27 55 66 55 109v16h-219v-31h186c-8-47-52-94-108-94-61 0-109 48-109 109v141h-219v-122c-19 8-41 13-63 13-81 0-148-63-156-141h-31v-31h750v31h-86z m-508 0v63h-31v-63h-61c8 61 61 109 123 109s116-48 124-109h-155z m188 0c-5 44-29 84-63 109v110h156v-31h-125v-32h125v-31h-93v-31h95c5-38 23-71 51-94h-146z m-407-375h-31v31h31v-31z m-62 31h-31v-31h31v31z m344 813h93v-188h32v219h-157v-328h32v297z m250 31h-94v-219h31v188h31v-188h32v219z m125-250v72l-94 47v-213h31v163l31-16v-147h32v63h62v-63h31v94h-93z m-313 188h-31v-32h31v32z m0-63h-31v-31h31v31z m0-62h-31v-32h31v32z m-62-250h-32v-32h32v32z" horiz-adv-x="1000" />

<glyph glyph-name="development" unicode="&#xe83d;" d="M31 300v-12h78v-157c0-43 35-78 79-78h140v-31h-31v-172h-31v172h-78c-61 0-110 48-110 109v125h-78v50l78 203c2 188 155 341 344 341v-31c-172 0-313-141-313-313v-3l-78-203z m891 209c-2 188-155 341-344 341-189 0-344-155-344-344 0-147 119-265 266-265 45 0 91 12 130 34l-16 28c-34-20-73-31-114-31-130 0-234 105-234 234 0 172 140 313 312 313s313-141 313-313v-3l78-203v-12h-78v-157c0-43-35-78-78-78h-141v-31h31v-172h31v172h79c60 0 109 48 109 109v125h78v50l-78 203z m-281-471c0 71 28 131 57 195 33 72 68 145 68 242v31c0 147-119 266-266 266v-31c130 0 234-105 234-235v-31c0-91-32-161-64-230-31-65-61-129-61-207v-188h32v188z m-10 468c39-37 60-75 46-101-7-11-21-22-52-22-9 0-22 1-36 5-8 1-16 3-23 6-13-53-35-91-66-91s-53 38-66 89c-7-3-15-4-23-6-14-3-25-5-36-5-31 0-44 11-52 22-7 14-10 41 29 85 4 6 11 12 17 17-39 37-60 75-46 101 7 11 21 22 52 22 9 0 22-1 36-5 8-1 16-3 23-6 13 55 35 92 66 92s53-37 66-89c7 3 15 5 23 7 56 11 78-4 86-19 17-27-5-64-44-102z m-203-83c-1 13-3 25-5 40-10 7-21 15-31 23-6-6-12-13-17-17-25-28-27-44-23-47 3-5 17-11 53-3 6 0 15 1 23 4z m-6 79v9c-2-2-5-3-6-5 3-1 4-3 6-4z m6 87c-8 3-15 5-23 6-36 8-50 2-53-3-5-8 7-34 40-65 10 7 21 15 31 23 2 14 4 27 5 39z m144 0c1-12 3-25 5-39 11-8 21-16 31-23 6 6 12 12 17 17 25 28 27 44 23 47-1 3-9 6-23 6-8 0-17-2-30-3-7 0-15-2-23-5z m6-87c2 1 3 3 6 4-1 2-3 3-6 5v-9z m-36 76c-1 0-4-1-6-3 2 0 3-2 3-2s3-1 3-1c0 1 0 5 0 6z m-78 31c13-4 24-9 36-15 13 6 25 11 36 15-11 46-27 69-36 69s-25-23-36-69z m-6-37c1 0 3 1 3 1s3 2 3 2c-1 2-5 2-6 3 0-1 0-5 0-6z m-5-92c8-5 16-10 24-14 7-5 15-10 23-13 8 5 16 8 23 13 8 4 16 9 24 14 0 9 0 17 0 26s0 19 0 27c-8 5-16 9-24 14-7 5-15 9-23 12-8-4-16-7-23-12-8-5-16-9-24-14 0-10 0-17 0-27s0-18 0-26z m89-39c-1 0-3-2-3-2s-3-1-5-1c2-2 5-2 7-4 1 2 1 5 1 7z m-84-7c1 0 5 2 6 4-1 0-3 1-3 1s-3 2-3 2c0-2 0-5 0-7z m78-31c-13 5-23 10-36 16-12-6-25-11-36-16 11-45 27-69 36-69s25 24 36 69z m72 83c-10-8-20-16-31-23-2-13-4-27-5-40 8-3 16-4 23-6 36-8 50-1 53 3 5 8-7 35-40 66z" horiz-adv-x="1000" />

<glyph glyph-name="market" unicode="&#xe83e;" d="M990-150h-913l-77 77v56h423l34-33h153l33 33h424v-56l-77-77z m-900 33h887l56 57v10h-376l-34-33h-180l-33 33h-377v-10l57-57z m10 200v467c0 18 15 33 33 33h17v34h-17c-36 0-66-30-66-67v-533h33v33h250v33h-250z m833 534h-16v-34h16c19 0 34-15 34-33v-467h-250v-33h250v-33h33v533c0 37-30 67-67 67z m-450-534h-33v-33h33v33z m-66 0h-34v-33h34v33z m133 0h-33v-33h33v33z m67 0h-34v-33h34v33z m66 0h-33v-33h33v33z m200 422c-3 188-156 342-345 345-1 0-3 0-5 0s-3 0-5 0c-190-3-345-158-345-350s155-347 345-350c2 0 4 0 5 0s4 0 5 0c190 2 344 155 345 345 0 2 0 3 0 5s0 3 0 5z m-41 67c-37 30-97 53-170 66-14 74-37 134-67 170 117-26 210-120 237-236z m-200-180c-34-5-70-9-109-9s-75 4-108 9c-5 33-8 70-8 108s3 75 8 108c33 5 70 9 108 9s75-4 109-9c5-33 8-70 8-108s-3-75-8-108z m-112 425c2 0 2 0 3 0s4 0 4 0c38-4 80-70 100-174-34 5-67 7-104 7s-71-2-103-7c20 104 62 169 100 174z m-68-9c-30-36-54-96-67-170-73-13-133-36-170-66 27 116 120 210 237 236z m-245-308c0 2 0 3 0 3 3 39 70 80 173 100-5-33-7-66-7-103s2-72 7-103c-103 20-168 61-173 100 0 0 0 1 0 3z m8-72c37-30 97-53 170-66 13-74 37-134 67-170-117 26-210 120-237 236z m308-245c-1 0-3 0-3 0-38 4-80 70-100 174 33-5 67-7 103-7s72 2 104 7c-20-104-62-169-100-174 0 0-2 0-4 0z m72 9c30 36 53 96 67 170 73 13 133 36 170 66-27-116-120-210-237-236z m245 305c-3-39-70-80-173-100 5 33 6 66 6 103s-1 72-6 103c103-20 168-61 173-100 0-1 0-1 0-3s0-3 0-3z" horiz-adv-x="1067" />

<glyph glyph-name="recognition" unicode="&#xe83f;" d="M813 741c0-61-49-110-110-110h-15v-515h-32v547h47c44 0 78 34 78 78s-34 78-78 78-78-35-78-78v-782c0-7-8-15-16-15h-187v31h172v766c0 31 12 57 33 78h-518c-43 0-78-35-78-78v-766h172v-31h-187c-8 0-16 8-16 15v782c0 61 48 109 109 109h594c61 0 110-48 110-109z m-485-78h-31v-32h31v32z m63 0h-32v-32h32v32z m-125 0h-32v-32h32v32z m218-94h-359v-31h359v31z m0-63h-359v-31h359v31z m0-62h-359v-31h359v31z m0-63h-359v-31h359v31z m0-62h-359v-31h359v31z m-95-281h2v-172c0-7-3-13-10-14-1-2-4-2-6-2-5 0-8 2-11 5l-51 51-52-51c-5-5-11-7-17-3-6 1-10 7-10 14v172h2c-20 20-33 46-33 78 0 61 49 109 110 109s109-48 109-109c0-32-13-58-33-78z m-30-21c-14-6-29-11-46-11s-33 3-47 11v-114l36 36c6 6 15 6 21 0l36-36v114z m32 99c0 43-35 78-78 78s-79-35-79-78 35-78 79-78 78 34 78 78z m-235 15h-31v-31h31v31z m328 0h-31v-31h31v31z" horiz-adv-x="813" />

<glyph glyph-name="acc-down" unicode="&#xe847;" d="M727-150l-711 883a85 85 0 0 0 0 99 50 50 0 0 0 79 0l632-647 634 649a49 49 0 0 0 78 0 85 85 0 0 0 0-99z" horiz-adv-x="1457" />

<glyph glyph-name="acc-up" unicode="&#xe848;" d="M723 850l-708-881a85 85 0 0 1 0-98 50 50 0 0 1 79 0l629 645 631-647a50 50 0 0 1 79 0 85 85 0 0 1 0 98z" horiz-adv-x="1450" />

<glyph glyph-name="business_travel" unicode="&#xe85d;" d="M950-150h-167c-9 0-16 7-16 17v50h-467v-50c0-10-7-17-17-17h-166c-9 0-17 7-17 17v50h-33c-19 0-34 15-34 33v117h34v-117h933v217h33v-217c0-18-15-33-33-33h-33v-50c0-10-8-17-17-17z m-150 33h133v34h-133v-34z m-667 0h134v34h-134v-34z m284 217h-134c-6 0-12 4-15 10s-1 14 4 18l166 167c3 3 8 5 12 5h267c7 0 14-5 16-12s-2-16-8-19l-300-167c-3-1-5-2-8-2z m-93 33h88l240 134h-195l-133-134z m-91-33h-133v33h133v-33z m-166 0h-67v33h67v-33z m850 100h-217v33h217c49 0 99 31 116 42v16c-17 12-68 42-116 42h-717c-4 0-9 2-12 5l-78 79h-22l42-184h187v-33h-200c-8 0-15 5-17 13l-50 217c-1 5 1 10 4 14 3 4 8 6 13 6h50c4 0 8-2 12-5l78-78h203l-138 138c-5 5-7 12-4 18 3 6 9 10 15 10h134c3 0 5 0 8-2l296-164h196c71 0 140-51 143-54 4-3 7-8 7-13v-33c0-6-3-10-7-14-3-2-72-53-143-53z m-460 167h195l-240 133h-88l133-133z m410-100h-34v33h34v-33z m-67 0h-33v33h33v-33z m-433 0h-34v33h34v-33z m-67 0h-33v33h33v-33z m-67 0h-33v33h33v-33z m800 133h-33v283h-67v-50c0-9-7-16-16-16h-100c-9 0-17 7-17 16v50h-533v-50c0-9-8-16-17-16h-100c-9 0-17 7-17 16v50h-66v-116h-34v116c0 19 15 34 34 34h283v100c0 18 15 33 33 33h300c19 0 34-15 34-33v-100h283c18 0 33-15 33-34v-283z m-200 250h67v33h-67v-33z m-666 0h66v33h-66v-33z m216 67h300v33h-300v-33z m267 66h33v34h-33v-34z m-67 0h34v34h-34v-34z m-66 0h33v34h-33v-34z m-67 0h33v34h-33v-34z m-67 0h34v34h-34v-34z m-150-283h-66v33h66v-33z m-100 0h-133v33h133v-33z" horiz-adv-x="1067" />

<glyph glyph-name="company_meeting" unicode="&#xe85e;" d="M500 663c-52 0-94 42-94 93s42 94 94 94 94-42 94-94-42-93-94-93z m0 156c-34 0-62-28-62-63s28-62 62-62c35 0 63 28 63 62s-28 63-63 63z m-406-156c-52 0-94 42-94 93s42 94 94 94 94-42 94-94-42-93-94-93z m0 156c-35 0-63-28-63-63s28-62 63-62 62 28 62 62-28 63-62 63z m594-297c0 60-50 109-110 109h-156c-60 0-109-49-109-109v-125h31v125c0 43 35 78 78 78h156c43 0 78-35 78-78v-125h32v125z m125-250h-625v94h625v-94z m-594 31h562v31h-562v-31z m109-437c0 2 0 4-1 6l-109 265c-3 6-8 10-15 10h-109c-35 0-63 28-63 62v360c0 17 14 31 32 31h31c52 0 94-42 94-94v-109h31v109c0 69-56 125-125 125h-31c-35 0-63-28-63-62v-360c0-51 42-93 94-93h99l105-256 15 6-1 15 16-15z m-15-16c5 0 10 3 13 7 1 2 2 5 2 9l-15-16z m78 391v-313c0-8-3-47-47-47l-16-15 16-16c62 0 78 51 78 78v313h-31z m515 422c-51 0-93 42-93 93s42 94 93 94 94-42 94-94-42-93-94-93z m0 156c-34 0-62-28-62-63s28-62 62-62 63 28 63 62-28 63-63 63z m-204-959l105 256h99c52 0 94 42 94 93v360c0 34-28 62-62 62h-32c-69 0-125-56-125-125v-109h32v109c0 52 42 94 93 94h32c17 0 31-14 31-31v-360c0-34-28-62-63-62h-109c-6 0-12-4-15-10l-105-256h-21c-44 0-46 39-47 47v313h-31v-313c0-27 17-78 78-78h32c6 0 12 4 14 10z m-186 381h-32v-391h32v391z m0 328h-32v-31h32v31z m0-63h-32v-31h32v31z" horiz-adv-x="1000" />

<glyph glyph-name="handshake_agreement" unicode="&#xe85f;" d="M798 95c-7 7-18 7-25 0-7-7-7-17-1-24l-160 159c-7 7-7 19 0 26s19 7 26 0l160-161z m44-45c-6-2-13-4-21-4-20 0-37 14-45 20l33-32c5-5 12-16 12-23 0-20-16-36-35-36-7 0-18 7-23 13l-15 14c6-7 20-25 20-45 0-5-1-10-2-14 6-2 13-4 20-4 39 0 71 32 71 72 0 15-8 30-15 39z m-97-44l-179 178c-7 7-18 7-25 0s-7-18 0-25l180-180c-1 0-1 1-1 1-7 7-7 19 0 26 7 7 18 7 25 0z m3-4c-2 2-3 3-3 4-7 7-18 7-25 0-7-7-7-19 0-26 0 0 0-1 1-1 0 0 0-1 0-1 5-6 11-15 11-21 0-20-16-36-36-36-6 0-17 8-23 13l-32 33c6-8 20-26 20-46 0-7-1-14-3-21 9-6 23-14 38-14 35 0 64 24 70 57 1 4 2 9 2 14 0 20-14 38-20 45z m-110-32l-143 143c-7 7-19 7-25 0s-7-19 0-26l143-144c0 1 0 1-1 2-7 7-6 18 1 25 7 7 18 7 25 0z m-181 3c0 0 1 1 1 1v0c0 0-1 0-1-1z m-152 136l0 0c1 1 2 1 2 2-1-1-1-1-2-2z m25-25l1-1c0 1 1 2 1 3 0-1-1-1-2-2z m3 30c0-1 1-1 1-1v0c0 0-1 1-1 1z m43-76l1-1c0 1 1 2 1 3 0-1-1-2-2-2z m26-26l0 0c1 1 1 1 2 2-1 0-1-1-2-2z m2 30c1 0 1-1 2-1v0c-1 1-1 1-2 1z m44-76l0 0c1 1 1 1 2 2-1-1-2-1-2-2z m25-25l1-1c0 1 1 2 1 3 0-1-1-1-2-2z m-15 33c0 0-1 0-1-1 0 0 1 1 1 1 6 2 14 1 19-4v0c-5 5-13 6-19 4z m-153 135l0 0c1 1 2 1 2 2-1-1-1-1-2-2z m33-2c-1 2-2 4-4 6 0 0-1 0-1 1 0 0-1 0-1 0-1 1-1 1-2 2 0 0 0 0-1 0 0 0 0 0-1 0h0c0 1 0 1 0 1-1 0-1 0-1 0-1 0-1 0-2 1-6 1-12-1-16-5-1-1-1-1-2-2 0-1-1-1-2-2l0 0c-6-4-14-9-19-9-20 0-36 16-36 36 0 5 5 13 9 19 1 1 3 3 4 4 7 7 7 18 0 25s-19 7-26 0c0 0-1-2-3-4-7-7-20-25-20-44 0-40 32-72 72-72 19 0 37 13 44 20 1 1 2 1 2 2 1 0 2 1 2 1 5 6 7 13 4 20z m-8-23l1-1c0 1 1 2 1 3 0-1-1-1-2-2z m3 30c0-1 1-1 1-1v0c0 0-1 1-1 1z m43-76l1-1c0 1 1 2 1 3 0-1-1-2-2-2z m34-3c-2 2-3 4-4 6-1 0-1 1-2 1 0 1 0 1-1 1 0 0-1 1-2 1 0 0 0 1 0 1-1 0-1 0-1 0-1 0-1 0-1 0l0 0h0c-1 1-2 1-3 1-5 1-11 0-16-5 0 0-1-1-2-1 0-1-1-2-1-3l-1 1c-5-5-13-9-19-9-19 0-36 16-36 35 0 6 5 14 10 19l-1 1c-7-7-25-20-44-20 0-39 32-71 71-71 20 0 37 13 45 19 1 1 1 2 2 2 1 1 1 1 2 2 5 5 6 13 4 19z m-8-23l0 0c1 1 1 1 2 2-1 0-1-1-2-2z m2 30c1 0 1-1 2-1v0c-1 1-1 1-2 1z m44-76l0 0c1 1 1 1 2 2-1-1-2-1-2-2z m100-68c-7 7-18 7-25 0-1-1-2-2-4-3-6-5-13-9-19-9-20 0-36 16-36 35 0 6 5 14 10 19l-1 1c-7-7-25-20-44-20 0-39 32-71 71-71 20 0 37 13 45 20 2 1 3 2 3 3 7 7 7 18 0 25z m-67 66c-1 2-2 4-4 6-5 5-13 6-19 4 0 0-1-1-1-1-1 0-1 0-2-1-1-1-2-1-3-2h0c-1-1-1-1-2-2-1-1-1-1-2-2l0 0c-6-4-14-9-19-9-20 0-36 16-36 36 0 5 5 13 9 19l0 0c-8-6-25-19-45-19 0-40 32-72 72-72 19 0 37 13 44 20 1 1 2 1 2 2 1 0 1 1 2 1 5 6 7 13 4 20z m-8-23l1-1c0 1 1 2 1 3 0-1-1-1-2-2z m-15 33c0 0-1 0-1-1 0 0 1 1 1 1 6 2 14 1 19-4v0c-5 5-13 6-19 4z m415 188l-3-3c-4-4-8-5-13-5s-9 1-12 5c-7 7-7 18 0 25l3 4-144 144h-43v36h7l-25 25v118h-79l-94-95c-6-5-17-12-24-12-19 0-35 16-35 35 0 7 7 18 12 23l108 108c7 6 7 18 0 25-4 3-8 5-13 5s-9-2-13-5l-107-107c-2-3-23-24-23-49 0-39 32-71 71-71 25 0 46 21 49 23l84 84h28v-97l238-237c5-5 12-16 12-23 0-20-16-36-36-36-6 0-17 8-23 13-7 7-18 7-25 0-7-7-7-17-1-24 0-1 1-1 1-1 0-1 2-2 3-4 8-6 25-20 45-20 8 0 15 2 21 4 30 8 51 36 51 68 0 19-13 37-20 44z m-123 242c0-20-16-36-36-36h-53v-36h53c40 0 72 32 72 72h-36z m388 30c-7 7-19 7-26 0l-84-84h-21l-275 275v21l174 174c7 6 7 18 0 25s-19 7-26 0l-178-179c-4-3-6-8-6-12v-36c0-5 2-9 6-13l5-5h43v-36h-7l223-223 4 4c6 7 18 7 25 0 7-7 7-19 0-25l-3-4c2-1 5-2 8-2h36c5 0 9 2 12 6l90 89c7 7 7 18 0 25z m-620 166c5 0 9-2 13-5 7-7 7-19 0-25l-6-6h225v36h-232z m477-255c-7 7-19 7-25 0l-4-4-55-55v-36l-63-62-3-4c-7-7-7-18 0-25 3-4 8-5 12-5s9 1 13 5l3 3 73 74v35l46 45 3 4c7 6 7 18 0 25z m-602 255v-36h82l30 31c4 3 8 5 13 5h-125z m248-633c-2 1-3 2-3 3-7 7-18 7-25 0-7-7-8-18-1-25 1-1 1-1 1-2 1 0 1 0 1-1 5-5 11-15 11-21 0-19-16-35-36-35-7 0-18 7-23 12l-316 317v53l-73 73-4 4c-7 7-18 7-25 0-7-7-7-19 0-25l3-4 63-63v-53l20-20c2 2 3 4 3 4 7 7 19 7 26 0s7-18 0-25c-1-1-3-3-4-4l46-46c1 1 1 1 2 2 1 1 1 1 2 2 4 4 10 6 16 5 1-1 1-1 2-1 0 0 0 0 1 0 0 0 0 0 0-1h0c1 0 1 0 1 0 1 0 1 0 1 0 1-1 1-1 2-2 0 0 1 0 1 0 0 0 1-1 1-1v0c2-2 3-4 4-6 3-7 1-14-4-20 0 0-1-1-2-1 0-1-1-2-1-3l45-45c1 0 2 1 2 1 1 1 2 2 2 2 5 5 11 6 16 5 1 0 2 0 3-1h0l0 0c0 0 0 0 1 0 0 0 0 0 1 0 0 0 0-1 0-1 1 0 2 0 2-1 1 0 1 0 1-1 1 0 1 0 2-1v0c1-2 3-3 4-6 2-6 1-14-4-19-1-1-1-1-2-2-1-1-1-1-2-2l46-46c0 1 1 1 2 2 1 1 1 1 2 2h0c1 1 2 1 3 2 1 1 1 1 2 1 0 0 1 0 1 1 6 2 14 1 19-4v0c2-2 3-4 4-6 3-7 1-14-4-20-1 0-1-1-2-1 0-1-1-2-1-3l45-45c2 1 3 2 4 3 7 7 18 7 25 0 7-7 7-18 0-25 0-1-1-2-3-3 7-7 25-20 44-20 32 0 60 21 69 50 2 7 3 14 3 21 0 20-14 38-20 46z m-200 699l-178 179c-7 7-19 7-26 0s-7-19 0-25l174-174v-21l-275-275h-21l-84 84c-7 7-19 7-26 0s-7-18 0-25l90-89c3-4 7-6 12-6h36c3 0 6 1 8 2l-3 4c-7 6-7 18 0 25 7 7 18 7 25 0l4-4 223 223h-7v36h43l5 5c4 4 5 8 5 13v36c0 4-1 9-5 12z m590-221l35 35c7 7 7 19 0 26s-18 7-25 0l-36-36c-7-7-7-18 0-25 4-4 8-6 13-6s9 2 13 6z m-893 0c7 7 7 18 0 25l-36 36c-7 7-18 7-25 0s-7-19 0-26l35-35c4-4 8-6 13-6s9 2 13 6z m362-327l0 0z m-36-36l0 0z" horiz-adv-x="1143" />

<glyph glyph-name="money_growth" unicode="&#xe860;" d="M859-150h-31v94h-203v-94h-31v94c0 17 14 31 31 31v109c0 3 0 54 36 90l156 156c3 3 7 4 11 4h16c34 0 62-28 62-62v-16c0-4-1-8-4-11l-110-109-22 22 105 105v9c0 17-14 31-31 31h-9l-152-151c-26-27-27-67-27-68v-109h141v16c0 1 0 38 36 73l109 110c26 25 27 50 27 51v250c0 17-14 31-31 31s-32-14-32-31v-125h-31v125c0 35 28 63 63 63s62-28 62-63v-250c0-1 0-38-36-73l-109-110c-26-26-27-51-27-52v-15c17 0 31-14 31-31v-94z m-343 0h-32v625h-312c-9 0-16 7-16 16v343c0 9 7 16 16 16h656c9 0 16-7 16-16v-343c0-9-7-16-16-16h-312v-625z m-328 656h625v313h-625v-313z m218-656h-31v94h-203v-94h-31v94c0 17 14 31 31 31v16c0 0-1 25-27 51l-109 110c-36 35-36 72-36 73v250c0 35 28 63 63 63s62-28 62-63v-125h-31v125c0 17-14 31-31 31s-32-14-32-31v-250c0-1 1-26 27-51l109-110c36-35 36-72 36-73v-16h141v109c0 1-1 41-27 68l-152 151h-9c-17 0-31-14-31-31v-9l105-105-22-22-110 109c-3 3-4 7-4 11v16c0 34 28 62 62 62h16c4 0 8-1 11-4l156-156c36-36 36-87 36-90v-109c17 0 31-14 31-31v-94z m32 406h-110c-34 0-62 28-62 63v47c0 8 7 15 15 15h110c34 0 62-28 62-62v-47c0-9-7-16-15-16z m-141 94v-31c0-17 14-31 31-31h94v31c0 17-14 31-31 31h-94z m375-31h-109c-9 0-16 7-16 15v47c0 35 28 63 62 63h110c8 0 15-7 15-16v-47c0-34-28-62-62-62z m-94 31h94c17 0 31 14 31 31v32h-94c-17 0-31-14-31-32v-31z m141 188h-438c-4 0-8 1-11 4l-47 47c-3 3-4 7-4 11v125c0 4 1 8 4 11l47 47c3 3 7 5 11 5h438c4 0 8-2 11-5l47-47c3-3 4-7 4-11v-125c0-4-1-8-4-11l-47-47c-3-3-7-4-11-4z m-431 31h424l38 38v112l-38 37h-424l-38-37v-112l38-38z m212 31c-34 0-62 28-62 63s28 62 62 62c35 0 63-28 63-62s-28-63-63-63z m0 94c-17 0-31-14-31-31s14-32 31-32c17 0 31 14 31 32s-14 31-31 31z m188-47h-32v31h32v-31z m-63 0h-31v31h31v-31z m-219 0h-31v31h31v-31z m-62 0h-31v31h31v-31z" horiz-adv-x="1000" />

<glyph glyph-name="passport_ticket" unicode="&#xe861;" d="M938-150h-282v31h219v282h31v-282h32c17 0 31 14 31 31v251c0 17-14 31-31 31v31c17 0 31 14 31 31v532c0 17-14 31-31 31h-32v-563h-31v563h-250v-63h-31v63h-94c-17 0-31-14-31-31v-32h-31v32c0 34 28 62 62 62h438c34 0 62-28 62-62v-532c0-18-8-35-21-47 13-11 21-28 21-46v-251c0-34-28-62-62-62z m-344 0h-563c-17 0-31 14-31 31v813c0 17 14 31 31 31h563c17 0 31-14 31-31v-813c0-17-14-31-31-31z m-563 844v-813h563v813h-563z m782-750h-32v187h32v-187z m-63 0h-31v187h31v-187z m-219 62h-437v32h437v-32z m0 63h-437v31h437v-31z m-218 94c-121 0-219 98-219 218s98 219 219 219 218-98 218-219-98-218-218-218z m15 140v-106c31 10 56 51 69 106h-69z m-100 0c13-55 39-96 69-106v106h-69z m202 0c-8-36-21-67-38-91 40 18 73 51 91 91h-53z m-288 0c19-40 51-73 91-91-17 24-30 55-38 91h-53z m293 31h59c4 15 6 31 6 47s-2 32-6 47h-59c2-15 3-31 3-47s-1-32-3-47z m-107 0h75c2 15 3 31 3 47s-1 32-3 47h-75v-94z m-106 0h75v94h-75c-2-15-3-31-3-47s1-32 3-47z m-91 0h59c-1 15-2 31-2 47s1 32 2 47h-59c-4-15-6-31-6-47s2-32 6-47z m299 125h53c-18 41-51 73-91 92 17-24 30-55 38-92z m-102 0h69c-12 55-38 96-69 107v-107z m-100 0h69v107c-30-11-56-52-69-107z m-86 0h53c8 37 21 68 38 92-40-19-72-51-91-92z m764-265h-31v31h31v-31z m-62 0h-31v31h31v-31z m-63 0h-31v31h31v-31z m-62 0h-31v31h31v-31z m94 94h-32v250h32v-250z m-63 0h-31v250h31v-250z m36 285l-20 21-21-21-22 22 27 27v50l-36-36-22 22 58 58v40h31v-40l58-58-22-22-36 36v-50l27-27-22-22z" horiz-adv-x="1000" />

<glyph glyph-name="blank_paper_write" unicode="&#xe862;" d="M719-88h-375v32h344v344h31v-376z m-125 813v109h-31v-140h140v31h-109z m-9 125h-585v-938h109v32h-78v875h532v15h31v-37l72-72h37v-31h-15v-156h31v178l-134 134z m4-364c-6 6-16 6-22 0l-156-156c-6-6-6-16 0-22 3-3 7-5 11-5s8 2 11 5l145 145 25-25 22 22-36 36z m-156-428l-156-157c-2-1-4-2-6-3l-125-47c-2-1-3-1-5-1-4 0-8 2-11 4-5 5-6 11-4 17l47 125c1 2 2 4 3 6l157 156c-6-6-6-16 0-22l11-11-134-134-11 11-23-23 18-17-27-70 70 27 18-18 22 23-11 10 134 135 11-11c3-3 7-5 11-5s8 2 11 5z m344 343l-63-62c6 6 6 16 0 22l-11 11 41 41-56 56-41-41-22 22 51 52c7 6 17 6 23 0l78-78c6-6 6-16 0-23z m-63-62l-281-281c6 6 6 16 0 22l-11 11 259 259 11-11c6-6 16-6 22 0z m-89 67l-259-259-11 11c-6 6-16 6-22 0l270 270 22-22z m89-45l-89 89-22-22 22-22 56-56 11-11c6-6 16-6 22 0 6 6 6 16 0 22z m-515-359l-23-23 18-17 43-43 18-18 22 23-78 78z m234 78l-78 78c-6 6-16 6-22 0s-6-16 0-22l78-78c3-3 7-5 11-5s8 2 11 5c6 6 6 16 0 22z" horiz-adv-x="781" />

<glyph glyph-name="business_dialog" unicode="&#xe863;" d="M859-150h-656c-26 0-47 21-47 47v219c0 26 21 47 47 47h656c26 0 47-21 47-47v-47h78c7 0 12-4 15-10 2-6 1-12-4-17l-89-89v-56c0-26-21-47-47-47z m-656 281c-8 0-15-7-15-15v-219c0-9 7-16 15-16h656c9 0 16 7 16 16v62c0 4 2 8 5 11l67 68h-56c-9 0-16 7-16 15v63c0 8-7 15-16 15h-656z m344-109h-31v-31h31v31z m62 0h-31v-31h31v31z m-125 0h-31v-31h31v31z m375 516h-656c-26 0-47 21-47 46v219c0 26 21 47 47 47h656c26 0 47-21 47-47v-47h78c7 0 12-4 15-9 2-6 1-13-4-17l-89-90v-56c0-25-21-46-47-46z m-656 281c-8 0-15-7-15-16v-219c0-8 7-15 15-15h656c9 0 16 7 16 15v63c0 4 2 8 5 11l67 67h-56c-9 0-16 7-16 16v62c0 9-7 16-16 16h-656z m203-78h-156v-32h156v32z m313 0h-281v-32h281v32z m-156-63h-313v-31h313v31z m234-484h-656c-26 0-47 21-47 47v56l-89 89c-5 4-6 11-4 17 3 6 8 10 15 10h78v46c0 26 21 47 47 47h656c26 0 47-21 47-47v-218c0-26-21-47-47-47z m-744 187l67-67c3-3 5-7 5-11v-62c0-9 7-16 16-16h656c9 0 16 7 16 16v218c0 9-7 16-16 16h-656c-9 0-16-7-16-16v-62c0-9-7-16-16-16h-56z m463 16h-328v-31h328v31z m-157-63h-171v-31h171v31z m313 0h-281v-31h281v31z" horiz-adv-x="1000" />

<glyph glyph-name="program_algorithm" unicode="&#xe864;" d="M585 194h-69v-16h-32v16h-125v-344h282v288l-56 56z m24-313h-218v282h181l37-38v-244z m-125 219h-62v31h62v-31z m94-62h-156v31h156v-31z m0-63h-156v31h156v-31z m0-63h-156v32h156v-32z m366 282h-69v-16h-31v16h-125v-344h281v288l-56 56z m25-313h-219v282h181l38-38v-244z m-125 219h-63v31h63v-31z m94-62h-157v31h157v-31z m0-63h-157v31h157v-31z m0-63h-157v32h157v-32z m-713 282h-69v-16h-31v16h-125v-344h281v288l-56 56z m25-313h-219v282h181l38-38v-244z m-125 219h-62v31h62v-31z m94-62h-156v31h156v-31z m0-63h-156v31h156v-31z m0-63h-156v32h156v-32z m297 360v-94h-32v94h32z m343 578c-77 0-140-63-140-141 0-72 55-132 125-139v14h31v-14c70 7 125 67 125 139 0 78-63 141-141 141z m0-250c-60 0-109 49-109 109s49 110 109 110 110-49 110-110-49-109-110-109z m-359 250c-77 0-141-63-141-141 0-72 55-132 125-139v14h32v-14c70 7 125 67 125 139 0 78-63 141-141 141z m0-250c-60 0-109 49-109 109s49 110 109 110c60 0 109-49 109-110s-49-109-109-109z m16-16v-93h-32v93h32z m-375 266c-78 0-141-63-141-141 0-72 55-132 125-139v14h31v-14c70 7 125 67 125 139 0 78-63 141-140 141z m0-250c-61 0-110 49-110 109s49 110 110 110 109-49 109-110-49-109-109-109z m531-94h-156v-15h-32v15h-156c-26 0-47-21-47-47v-156c0-26 21-47 47-47h156v16h32v-16h156c26 0 47 21 47 47v156c0 26-21 47-47 47z m16-203c0-8-7-15-16-15h-344c-8 0-15 7-15 15v156c0 9 7 16 15 16h344c9 0 16-7 16-16v-156z m-438 125v-31h-78c-26 0-47 21-47 47v140h31v-140c0-9 7-16 16-16h78z m0-62v-32h-78c-9 0-16-7-16-15v-141h-31v141c0 26 21 47 47 47h78z m625 218v-140c0-26-21-47-47-47h-78v31h78c9 0 16 7 16 16v140h31z m0-265v-141h-31v141c0 8-7 15-16 15h-78v32h78c26 0 47-21 47-47z m-359 47h-32v31h32v-31z m-63 0h-31v31h31v-31z m125 0h-31v31h31v-31z" horiz-adv-x="1000" />

<glyph glyph-name="training_seminar" unicode="&#xe865;" d="M938 381h-594v32h562v281h-562v31h594v-344z m-657 375c0 52-42 94-93 94s-94-42-94-94 42-93 94-93 93 42 93 93z m-31 0c0-34-28-62-62-62s-63 28-63 62 28 63 63 63 62-28 62-63z m750 32h-687v-32h656v-468h-656v218h250v125h-438c-69 0-125-56-125-125v-250h125v157h-31v-125h-63v218c0 52 42 94 94 94h406v-62h-250v-282h719v532z m-62-438h-594v-31h594v31z m-672-258c0-32-9-60-25-80l-14 8-16-27 7-4c-14-9-29-14-46-14s-32 5-46 14l7 4-16 27-14-8c-16 20-25 48-25 80 0 48 11 102 94 102s94-54 94-102z m-32 0c0 54-15 71-62 71s-63-17-63-71c0-41 22-86 63-86s62 45 62 86z m360 0c0-31-9-59-24-80l-16 8-14-28 6-3c-13-9-29-14-46-14s-33 5-46 14l6 3-14 28-16-8c-15 21-24 49-24 80 0 48 11 102 94 102 83 0 94-54 94-102z m-31 0c0 54-16 71-63 71-47 0-62-17-62-71 0-41 21-86 62-86 41 0 63 45 63 86z m210-72l-14-8-88-51-101 51-16 8-14-28 6-3 110-55v10h32v-9l94 54 7 4-16 27z m-327 0l-16-8-101-51-88 51-14 8-16-27 7-4 95-54v9h31v-10l110 55 6 3-14 28z m476 72c0-32-9-60-25-80l-14 8-16-27 7-4c-13-9-29-14-46-14s-32 5-46 14l7 4-16 27-14-8c-16 20-25 48-25 80 0 48 11 102 94 102s94-54 94-102z m-31 0c0 54-15 71-63 71s-62-17-62-71c0-41 22-86 62-86s63 45 63 86z m6-80l-14 8-16-27 7-4 95-54v-23c0-19-11-31-16-31h-906c-5 0-16 12-16 31v23l95 54 7 4-16 27-14-8-103-59v-41c0-33 21-62 47-62h906c26 0 47 29 47 62v41l-103 59z m-584-68v-47h31v47h-31z m343 0v-47h32v47h-32z m-453 625h-31v-31h31v31z m0-63h-31v-31h31v31z" horiz-adv-x="1000" />

<glyph glyph-name="leadership_growth" unicode="&#xe866;" d="M344-150h-31v62h-282v-62h-31v78c0 9 7 16 16 16h312c9 0 16-7 16-16v-78z m312 172c0 9-7 16-15 16h-313c-8 0-15-7-15-16v-47h31v31h281v-156h31v172z m344 94c0 8-7 15-16 15h-343c-9 0-16-7-16-15v-47h31v31h313v-250h31v266z m-469 656c0 43-35 78-78 78s-78-35-78-78 35-78 78-78 78 35 78 78z m-31 0c0-26-21-47-47-47s-47 21-47 47 21 47 47 47 47-21 47-47z m-254-172c-3-1-5-2-7-4l-83-83-25 25 96 95 168 46-8 30-172-47c-3-1-5-2-7-4l-110-109c-6-6-6-16 0-23l47-46c3-3 7-5 11-5s8 2 11 5l91 90 53 14 2 22 31-3-1-11 36 9-8 30-125-31z m365-15c4 0 7 1 10 4l109 109c6 6 6 16 0 23l-47 46c-6 6-16 6-22 0l-89-89h-103v-31h109c4 0 8 2 11 4l83 83 25-25-95-94-135-15c-6-1-11-5-13-11l-31-110c-2-7 1-15 8-18l151-76 69-153-36-18-86 144c-2 4-6 6-10 7l-103 26-22 5-7-30 20-5 99-25 90-150c3-5 8-8 13-8 3 0 5 1 7 2l63 31c7 4 11 13 7 20l-78 172c-1 4-4 6-7 8l-145 72 25 87 130 15z m-195-194l5 17-30 9-45-152-157-128-26 26 114 113c1 2 3 4 4 7l46 140c1 1 1 3 1 4l15 165 1 11-31 3-2-22-14-153-45-135-122-122c-7-6-7-16 0-23l46-46c4-3 7-5 12-5 3 0 7 1 9 4l172 140c3 2 4 5 5 8l33 109-20 5 7 30 22-5z" horiz-adv-x="1000" />

<glyph glyph-name="tactics_and_strategy" unicode="&#xe867;" d="M500-56c-43 0-78 35-78 78s35 78 78 78 78-35 78-78-35-78-78-78z m0 125c-26 0-47-21-47-47s21-47 47-47 47 21 47 47-21 47-47 47z m0 531c-43 0-78 35-78 78s35 78 78 78 78-35 78-78-35-78-78-78z m0 125c-26 0-47-21-47-47s21-47 47-47 47 21 47 47-21 47-47 47z m0-562c-43 0-78 35-78 78s35 78 78 78 78-35 78-78-35-78-78-78z m0 125c-26 0-47-21-47-47s21-47 47-47 47 21 47 47-21 47-47 47z m-219-125c-43 0-78 35-78 78s35 78 78 78 78-35 78-78-35-78-78-78z m0 125c-26 0-47-21-47-47s21-47 47-47 47 21 47 47-21 47-47 47z m438-125c-43 0-78 35-78 78s35 78 78 78 78-35 78-78-35-78-78-78z m0 125c-26 0-47-21-47-47s21-47 47-47 47 21 47 47-21 47-47 47z m-364 245c-6 6-16 6-22 0l-52-51 22-23 52 52c6 6 6 16 0 22z m-74-51l-73-74c-6-6-6-16 0-22 3-3 7-5 11-5s8 2 11 5l73 73-22 23z m-51 51c-6 6-16 6-22 0s-6-16 0-22l51-52 22 23-51 51z m125-125l-52 51-22-22 52-51c3-3 7-5 11-5s8 2 11 5c6 6 6 16 0 22z m71 0c-6-6-6-16 0-22 4-3 7-5 12-5s8 2 11 5l51 51-22 22-52-51z m148 125c-6 6-16 6-23 0l-51-51 22-23 52 52c6 6 6 16 0 22z m-125 0c-6 6-16 6-23 0s-6-16 0-22l74-74 22 22-73 74z m125-125l-52 51-22-22 51-51c4-3 7-5 12-5s8 2 11 5c6 6 6 16 0 22z m123 51l-52-51c-6-6-6-16 0-22 3-3 7-5 11-5s8 2 11 5l52 51-22 22z m95 74c-6 6-16 6-22 0l-51-51 22-23 51 52c6 6 6 16 0 22z m0-125l-73 74-22-23 73-73c3-3 7-5 11-5s8 2 11 5c6 6 6 16 0 22z m-125 125c-6 6-16 6-22 0s-6-16 0-22l52-52 22 23-52 51z m333 317h-1000v-31h1000v31z m0-969h-1000v-31h1000v31z m-875 813c-26 0-47-21-47-47v-375c0-26 21-47 47-47h47v31h-47c-9 0-16 7-16 16v375c0 9 7 16 16 16h219v31h-219z m167 58l-22-22 36-36h38v-31h-38l-36-36 22-22 74 73-74 74z m364-89v31h38l36 36-22 22-74-74 74-73 22 22-36 36h-38z m219 31h-219v-31h219c9 0 16-7 16-16v-594c0-8-7-15-16-15h-266v-32h266c26 0 47 21 47 47v594c0 26-21 47-47 47z" horiz-adv-x="1000" />

<glyph glyph-name="team_relationship" unicode="&#xe868;" d="M900 250h-33v317c0 46-38 83-84 83h-66v33h66c65 0 117-52 117-116v-317z m-700 317c0 46 37 83 83 83h67v33h-67c-64 0-116-52-116-116v-317h33v317z m483-684h-300v-33h300v33z m-133 367h-33v-33h33v33z m-67 0h-33v-33h33v33z m134 0h-34v-33h34v33z m16 492c0-34-9-64-26-86l-15 9-17-29 7-5c-14-9-31-14-49-14s-34 5-48 14l7 5-17 29-15-9c-17 22-27 52-27 86 0 50 12 108 100 108 89 0 100-58 100-108z m-33 0c0 57-16 75-67 75-50 0-66-18-66-75 0-45 23-92 66-92 44 0 67 47 67 92z m7-86l-15 9-17-29 7-5 101-57v-24c0-20-11-33-16-33h-267c-5 0-17 13-17 33v24l102 57 7 5-17 29-15-9-110-63v-43c0-36 23-67 50-67h267c27 0 50 31 50 67v43l-110 63z m-324-548c0-34-9-64-26-86l-15 9-17-29 7-4c-14-9-31-15-49-15s-34 6-48 15l7 4-17 29-15-9c-17 22-27 52-27 86 0 51 12 109 100 109s100-58 100-109z m-33 0c0 57-16 75-67 75s-66-18-66-75c0-44 23-91 66-91s67 47 67 91z m7-86l-15 9-17-29 7-4 101-58v-23c0-21-11-34-16-34h-267c-5 0-17 13-17 34v23l102 58 7 4-17 29-15-9-110-62v-43c0-37 23-67 50-67h267c27 0 50 30 50 67v43l-110 62z m726 86c0-34-9-64-26-86l-15 9-17-29 7-4c-14-9-31-15-49-15s-34 6-48 15l7 4-17 29-15-9c-17 22-27 52-27 86 0 51 12 109 100 109s100-58 100-109z m-33 0c0 57-16 75-67 75s-66-18-66-75c0-44 23-91 66-91s67 47 67 91z m7-86l-15 9-17-29 7-4 101-58v-23c0-21-11-34-16-34h-267c-5 0-17 13-17 34v23l102 58 7 4-17 29-15-9-110-62v-43c0-37 23-67 50-67h267c27 0 50 30 50 67v43l-110 62z m-240 211c0 101-83 184-184 184s-183-83-183-184 82-183 183-183 184 82 184 183z m-34 0c0-82-67-150-150-150-82 0-150 68-150 150s68 150 150 150c83 0 150-67 150-150z" horiz-adv-x="1067" />

<glyph glyph-name="market_trends" unicode="&#xe869;" d="M94 850v-906h-31v906h31z m-31-1000h31v62h-31v-62z m-63 94v-32h94v32h-94z m94 0v-32h906v32h-906z m183 286l-22 22-94-94 22-22 94 94z m-121-224h-31v-31h31v31z m63 0h-31v-31h31v31z m62 0h-31v-31h31v31z m63 0h-31v-31h31v31z m62 0h-31v-31h31v31z m63 0h-31v-31h31v31z m62 0h-31v-31h31v31z m63 0h-31v-31h31v31z m62 0h-31v-31h31v31z m63 0h-31v-31h31v31z m62 0h-31v-31h31v31z m63 0h-31v-31h31v31z m62 0h-31v-31h31v31z m63 0h-31v-31h31v31z m-224 574l-113 114h-92l-87-87-87 87h-210v-31h197l100-101 100 101h66l104-105 22 22z m79-78l-23-22 141-141 22 22-140 141z m114-74v-40l26-27-22-22-27 27h-40v-32h94v94h-31z m4 293l-27-27-265-266h-219l-83-82 23-23 73 74h219l275 275 26 26-22 23z m-67 4v-31h40l27 27 22-23-26-26v-41h31v94h-94z m27-489l-22-22 36-36h37v-31h-37l-36-36 22-22 73 74-73 73z m-208-58l-100 100-125-125-286 286-22-22 308-308 125 125 87-87h272v31h-259z" horiz-adv-x="1000" />

<glyph glyph-name="model_preparation" unicode="&#xe86a;" d="M500 575l-8-4-15 27 7 5-187 106-24-13-15 27c-5-3-8-8-8-14v-265c0-6 3-11 8-14l219-125c2-1 5-2 7-2s6 1 8 2l-15 27 23 14v229z m-31-229l-188 107v230l188-108v-229z m242 377v0l-16-27-23 13-188 107-187-107-24-13-15 27v0l219 125c4 3 10 3 15 0l219-125z m8-14v-265c0-6-3-11-8-14l-219-125-15 27 23 14 188 107v230l-188-108-8-4-15 27 7 5 188 106 23-13 16 27c5-3 8-8 8-14z m-469-587l-8-4-15 27 7 4-187 107-24-13-15 27c-5-3-8-8-8-14v-265c0-6 3-11 8-14l219-125c2-1 5-2 7-2s6 1 8 2l-15 27 23 14v229z m-31-230l-188 108v229l188-107v-230z m250 364v-265c0-6-3-11-8-14l-219-125-15 27 23 14 188 107v229l-188-107-8-4-15 27 7 4 188 107 23-13 16 27c5-3 8-8 8-14z m-8 14l-16-27-23 13-188 107-187-107-24-13-15 27 219 125c4 3 10 3 15 0l219-125z m289-148l-8-4-15 27 7 4-187 107-24-13-15 27c-5-3-8-8-8-14v-265c0-6 3-11 8-14l219-125c2-1 5-2 7-2s6 1 8 2l-15 27 23 14v229z m-31-230l-188 108v229l188-107v-230z m250 364v-265c0-6-3-11-8-14l-219-125-15 27 23 14 188 107v229l-188-107-8-4-15 27 7 4 188 107 23-13 16 27c5-3 8-8 8-14z m-8 14l-16-27-23 13-188 107-187-107-24-13-15 27 219 125c4 3 10 3 15 0l219-125z m-180 158c-17 0-31 14-31 31s14 32 31 32 32-14 32-32-14-31-32-31z m-593 0c-18 0-32 14-32 31s14 32 32 32 31-14 31-32-14-31-31-31z m296-547c-17 0-31 14-31 31s14 32 31 32c18 0 32-14 32-32s-14-31-32-31z" horiz-adv-x="969" />

<glyph glyph-name="social_engagement" unicode="&#xe86b;" d="M283-150c-4 0-8 2-11 5l-162 162h-27c-46 0-83 37-83 83v533c0 46 37 84 83 84h284v-34h-284c-27 0-50-22-50-50v-533c0-28 23-50 50-50h34c4 0 8-2 12-5l138-138v126c0 10 7 17 16 17h300c28 0 50 22 50 50v167c0 9 8 16 17 16h82l-97 227c-1 2-2 4-2 7v116c0 28-22 50-50 50h-116v34h116c46 0 84-38 84-84v-113l98-230c1-2 2-4 2-7v-16c0-9-8-17-17-17h-83v-150c0-46-38-83-84-83h-283v-150c0-7-4-13-10-16-2-1-4-1-7-1z m512 138l162 162h26c46 0 84 37 84 83v534c0 46-38 83-84 83h-500c-46 0-83-37-83-83v-147l-99-230c0-2-1-4-1-7v-16c0-9 8-17 17-17h83v-117c0-46 37-83 83-83h117v33h-117c-27 0-50 23-50 50v134c0 9-7 16-16 16h-82l97 227c1 2 1 4 1 7v150c0 27 23 50 50 50h500c28 0 50-23 50-50v-534c0-27-22-50-50-50h-33c-4 0-9-1-12-5l-138-138v127c0 9-7 16-17 16h-83v-33h67v-150c0-7 4-13 10-15 2-1 4-2 6-2 5 0 9 2 12 5z m172 729h-234v-34h234v34z m0-67h-234v-33h234v33z m-67-67h-167v-33h167v33z m-600 34h-200v-34h200v34z m0-67h-200v-33h200v33z m-67-67h-133v-33h133v33z" horiz-adv-x="1067" />

<glyph glyph-name="success_tactics" unicode="&#xe86c;" d="M382 161l-4-11-94-267-1-3v-13h-33v16c0 2 0 4 1 6l92 261 8 22 31-11z m135 6v-300h33v300h-33z m299-278l-92 261-8 22-32-11 4-11 94-267 1-3v-13h34v16c0 2-1 4-1 6z m151 761v-467h-867v467h-33v-483c0-9 7-17 16-17h260l8 22 31-11-4-11h139v17h33v-17h138l-4 11 32 11 8-22h259c10 0 17 8 17 17v483h-33z m100 50v67c0 9-8 16-17 16h-390l-28 58c-3 5-9 9-15 9h-167c-6 0-12-4-15-9l-29-58h-389c-9 0-17-7-17-16v-67c0-9 8-17 17-17h1033c9 0 17 8 17 17z m-1034 50h384c6 0 12 4 15 9l28 58h146l29-58c3-5 9-9 15-9h383v-33h-1000v33z m450 0h100v33h-100v-33z m334-867v-16h-34v13l-1 3h-232v-16h-33v16h-233l-1-3v-13h-33v16h-250v-33h1067v33h-250z m-417 667c0-18 15-33 33-33s34 15 34 33-15 33-34 33-33-15-33-33z m167-233c0-19 15-34 33-34s33 15 33 34-15 33-33 33-33-15-33-33z m-200 133v100c0 37 30 67 66 67s67-30 67-67v-33h33v33c0 55-44 100-100 100s-100-45-100-100v-100c0-37-30-67-66-67h-100v-33h100c55 0 100 45 100 100z m400 67c-55 0-100-45-100-100v-100c0-37-30-67-67-67s-67 30-67 67v33h-33v-33c0-55 45-100 100-100s100 45 100 100v100c0 37 30 66 67 66h133v34h-133z m145-5l-67 67-23-24 38-38h40v-34h-40l-38-38 23-23 67 66c6 7 6 17 0 24z m-412-62h33v33h-33v-33z m0-67h33v34h-33v-34z m-367 234h34v33h-34v-33z m767 0h33v33h-33v-33z m0-400h33v33h-33v-33z m-767 0h34v33h-34v-33z" horiz-adv-x="1067" />

<glyph glyph-name="team_leader" unicode="&#xe86d;" d="M971 353l-8-5-88-53-19 33 78 47 18 11 19-33z m260-49v-50c0-42-27-77-58-77h-115v38h115c6 0 19 15 19 39v27l-116 67c-17-11-36-17-57-17-20 0-39 6-56 17l8 5-19 33-18-11c-19 26-30 61-30 100 0 58 13 125 115 125s116-67 116-125c0-39-11-74-31-99l127-72z m-135 171c0 66-18 87-77 87s-77-21-77-87c0-51 27-106 77-106s77 55 77 106z m-800-100l-17 11-20-33 9-5 88-53 19 33-79 47z m31 100c0-39-11-74-31-100l-17 11-20-33 9-5c-17-11-36-17-56-17-21 0-40 6-57 17l-116-67v-27c0-24 13-39 19-39h115v-38h-115c-32 0-58 35-58 77v50l127 72c-20 25-31 60-31 99 0 58 13 125 116 125s115-67 115-125z m-38 0c0 66-19 87-77 87s-77-21-77-87c0-51 27-106 77-106s77 55 77 106z m461-202l0 0z m29 17l-19-34c4-2 8-4 13-7l-77-76-81 40-80-40-77 76c5 3 9 5 13 7l-19 34c-1-1-3-2-4-2l43 64 9-2v-19h39v13l76-13 77 13v-13h39v19l9 2 43-64c-2 1-3 1-4 2z m-35-14l-22 34-107-18-106 18-23-34 56-56 73 36 74-36 55 56z m138-32c-33 12-66 25-99 44v0c-2 1-3 1-4 2l-19-34c4-2 8-4 13-7 33-17 66-30 95-41 91-34 151-57 151-185v-173h39v173c0 154-86 187-176 221z m-430 46c-1-1-3-1-4-2v0c-33-19-67-32-99-44-90-34-176-67-176-221v-173h39v173c0 128 60 151 151 185 29 11 62 24 95 41 5 3 9 5 13 7l-19 34z m183-209h-39v-39h39v39z m0 77h-39v-39h39v39z m173 500l0-80c-16-112-59-162-77-179v9h-39v-28c-36-11-75-11-77-11s-40 0-76 11v28h-39v-9c-18 17-61 67-77 179l0 3v77c0 127 65 192 192 192 128 0 193-65 193-192z m-11-17l-17 34-11-6c-3 99-51 143-154 143-95 0-143-38-152-122l-29-15 17-34 11 5v-64c16-114 61-153 67-158 34-16 85-16 86-16s53 0 87 16c6 5 51 45 67 158v45l28 14z m-105-233v-77h39v77h-39z m-192 0v-77h39v77h-39z m280 267l-11-6-58-29-193 77-55-27-29-15 17-34 11 5 58 29 193-77 56 29 28 14-17 34z m-415-671h-38v-154h38v154z m539 0h-39v-154h39v154z" horiz-adv-x="1231" />

<glyph glyph-name="viral_marketing" unicode="&#xe86e;" d="M109-150c-2 0-4 0-6 1-5 3-9 8-9 15v140h-63c-17 0-31 14-31 32v500c0 17 14 31 31 31h188v-31h-188v-500h78c9 0 16-7 16-16v-119l130 130c3 3 7 5 11 5h453v500h-406v31h406c17 0 31-14 31-31v-500c0-18-14-32-31-32h-447l-152-151c-3-3-7-5-11-5z m891 313v500c0 17-14 31-31 31h-63v140c0 7-3 12-9 15-6 2-13 1-17-4l-152-151h-447c-17 0-31-14-31-31v-500c0-18 14-32 31-32h407v32h-407v500h453c5 0 9 1 11 4l130 130v-119c0-8 7-15 16-15h78v-500h-188v-32h188c17 0 31 14 31 32z m-356 187l-238 119v-238l238 119z m-70 0l-136-68v137l136-69z" horiz-adv-x="1000" />

<glyph glyph-name="diagram_chart" unicode="&#xe86f;" d="M938 319c0-259-211-469-469-469s-469 210-469 469 210 469 469 469v-32c-236 0-429-188-437-422h-16v-31h16c3-109 47-208 117-282l-4-4 22-22 4 4c78-73 183-118 298-118 115 0 220 45 298 118l3-4 22 22-3 4c73 78 117 183 117 298h32z m62 62c0 259-210 469-469 469h-15v-484h484v15z m-453 438c229-9 413-193 422-422h-422v422z m94-328h-32v-32h32v32z m62 0h-31v-32h31v32z m63 0h-32v-32h32v32z m23-470l-314 313h-459v-31h415l27 27 22-22-11-11 298-298 3-4 22 22-3 4z m-331 309l-313-313 22-22 4 4 298 298 11 11-22 22z" horiz-adv-x="1000" />

<glyph glyph-name="focus_group" unicode="&#xe870;" d="M226 398c-86 0-97-56-97-104 0-34 10-63 26-85l14 9 17-26-7-5c14-9 30-14 47-14s33 5 47 14l-8 5 18 26 14-9c16 22 26 51 26 85 0 48-11 104-97 104z m0-193c-42 0-65 46-65 89 0 55 16 72 65 72s64-17 64-72c0-43-22-89-64-89z m177 258h-355c-26 0-48-22-48-48v-388c0-26 22-48 48-48h77l255-127c2-2 5-2 7-2 4 0 9 2 12 5 4 5 6 12 3 18l-53 106h54c27 0 49 22 49 48v388c0 26-22 48-49 48z m16-436c0-8-7-16-16-16h-80c-6 0-11-3-14-7-3-5-3-11-1-16l43-86-215 108c-2 1-4 1-7 1h-81c-8 0-16 8-16 16v388c0 8 8 16 16 16h355c9 0 16-8 16-16v-388z m-32 122v-41c0-35-22-64-48-64h-226c-26 0-48 29-48 64v41l90 60 14 9 17-26-7-5h0l-82-55v-24c0-20 11-32 16-32h226c5 0 16 12 16 32v24l-82 55h0l-8 5 18 26 14-9 90-60z m420 411c-86 0-97-56-97-105 0-33 9-63 26-84l13 9 18-27-7-5c13-9 29-14 47-14s33 5 46 14l-7 5 18 27 13-9c17 21 26 51 26 84 0 49-11 105-96 105z m0-194c-42 0-65 46-65 89 0 55 16 72 65 72s64-17 64-72c0-43-23-89-64-89z m161-56v-41c0-35-22-64-49-64h-225c-27 0-49 29-49 64v41l91 61 13 9 18-27-7-5h0l-83-55v-24c0-19 12-32 17-32h225c5 0 17 13 17 32v24l-83 55h0l-7 5 18 27 13-9 91-61z m-323-299c-4 0-8 2-11 5-5 5-6 12-3 19l53 105h-55c-27 0-48 22-48 49v145h32v-145c0-9 7-16 16-16h81c5 0 11-3 13-8s4-11 1-16l-43-85 215 107c2 1 5 2 7 2h81c9 0 16 7 16 16v387c0 9-7 16-16 16h-274v32h274c27 0 48-21 48-48v-387c0-27-21-49-48-49h-77l-255-127c-2-1-4-2-7-2z m-193 775c-86 0-97-56-97-105 0-34 10-63 26-84l13 8 18-26-7-5c14-9 30-14 47-14s33 5 46 14l-7 5 18 26 13-8c17 21 26 50 26 84 0 49-11 105-96 105z m0-194c-42 0-65 46-65 89 0 55 16 72 65 72s64-17 64-72c0-43-22-89-64-89z m-40-13l-7-5h0l-82-55v-24h-33v41l91 61 13 8 18-26z m201-43v-41c0-35-22-64-48-64h-81v32h81c4 0 16 13 16 32v24l-82 55h-1l-7 5 18 26 13-8 91-61z m-116-259l-26 17 64 97c3 5 8 7 13 7h81c9 0 16 8 16 17v387c0 9-7 16-16 16h-355c-9 0-16-7-16-16v-307h-32v307c0 26 22 48 48 48h355c27 0 48-22 48-48v-387c0-27-21-49-48-49h-72l-60-89z m164-363h-32v33h32v-33z m-64 0h-32v33h32v-33z m-65 0h-32v33h32v-33z m194 0h-32v33h32v-33z" horiz-adv-x="1032" />

<glyph glyph-name="statistical_analysis" unicode="&#xe871;" d="M1067 150v-33h-1067v33h33v-17h34v17h33v-17h33v17h34v-17h33v17h33v-17h34v17h33v-17h33v17h184v-17h33v17h183v-17h34v17h33v-17h33v17h34v-17h33v17h33v-17h34v17h33v-17h33v17h34z m-763 450h13v-17h16c52 118 105 220 184 232v18h16v17c-107 0-170-115-229-250z m-15-33c-3-7-6-14-9-21-70-162-142-329-280-329v-34c12 0 23 1 33 3v14h34v-5c11 4 22 9 33 16v22h32c12 11 24 22 35 35v49h33v-5c12 17 23 36 33 56v65h33c12 25 23 50 34 75v59h-11z m28 16v-16h-17v-434h33v450h-16z m200 250v-700h33v700h-33z m-284-400v-300h34v300h-34z m-66-116v-184h33v184h-33z m-67-84v-100h33v100h-33z m-67-33v-67h34v67h-34z m700 383v-450h34v450h-34z m67-150v-300h33v300h-33z m67-116v-184h33v184h-33z m66-84v-100h34v100h-34z m67-33v-67h33v67h-33z m-867 400v-33h184v33h-184z m-66-33h33v33h-33v-33z m-67 0h33v33h-33v-33z m787-21c-48 112-95 218-161 271-27 21-57 33-93 33v-17h17v-18c79-12 132-114 184-232h33v-75c11-25 22-50 33-75h33v-65c11-20 22-39 34-56v5h33v-49c11-13 23-24 35-35h32v-22c10-7 21-12 33-16v5h33v-14c11-2 22-3 34-3v34c-138 0-210 167-280 329z m-254 304c36 0 66-12 93-33h307v33h-400z m434-33h33v33h-33v-33z m66 0h34v33h-34v-33z m-1016-767h33v33h-33v-33z m66 0h34v33h-34v-33z m67 0h33v33h-33v-33z m67 0h33v33h-33v-33z m66 0h34v33h-34v-33z m67 0h33v33h-33v-33z m67 0h33v33h-33v-33z m66 0h34v33h-34v-33z m67 0h33v33h-33v-33z m67 0h33v33h-33v-33z m66 0h34v33h-34v-33z m67 0h33v33h-33v-33z m-600-67h33v34h-33v-34z m67 0h33v34h-33v-34z m66 0h34v34h-34v-34z m67 0h33v34h-33v-34z m67 0h33v34h-33v-34z m66 0h34v34h-34v-34z m67 0h33v34h-33v-34z m67 0h33v34h-33v-34z m66 0h34v34h-34v-34z m67 0h33v34h-33v-34z m-467-66h34v33h-34v-33z m67 0h33v33h-33v-33z m67 0h33v33h-33v-33z m66 0h34v33h-34v-33z m67 0h33v33h-33v-33z m67 0h33v33h-33v-33z m66 0h34v33h-34v-33z m67 0h33v33h-33v-33z m-333-67h33v33h-33v-33z m66 0h34v33h-34v-33z m67 0h33v33h-33v-33z m67 0h33v33h-33v-33z m200 200h33v33h-33v-33z m66 0h34v33h-34v-33z m67 0h33v33h-33v-33z m67 0h33v33h-33v-33z m-200-67h33v34h-33v-34z m66 0h34v34h-34v-34z" horiz-adv-x="1067" />

<glyph glyph-name="conference_room" unicode="&#xe872;" d="M500 663c-52 0-94 42-94 93s42 94 94 94c52 0 94-42 94-94s-42-93-94-93z m0 156c-34 0-62-28-62-63s28-62 62-62 63 28 63 62-28 63-63 63z m78-188h-156c-69 0-125-56-125-125v-125h406v125c0 69-56 125-125 125z m31-218v-16h-31v16h-156v-16h-31v16h-63v93c0 52 42 94 94 94h156c52 0 94-42 94-94v-93h-63z m-218 62v-78h31v78h-31z m187 0v-78h31v78h-31z m422-281h-234v31h203v531h-344v32h375v-594z m-766 0h-234v594h375v-32h-344v-531h203v-31z m375 219v-16h-31v16h-156v-16h-31v16h-188v-125h94v31h-63v62h532v-62h-63v-31h94v125h-188z m-312-94v-31h406v31h-406z m0-469h31v438h-31v-438z m375 438v-438h31v438h-31z m-63-376h-218v313h218v-313z m-187 32h156v250h-156v-250z m62 625h32v-31h-32v31z m0-63h32v-31h-32v31z" horiz-adv-x="1000" />

<glyph glyph-name="global_business" unicode="&#xe873;" d="M453 694c-22 0-42-14-59-37-55-11-106-36-148-73-6 3-13 7-18 11l-18-26c4-3 8-5 13-8-21-23-39-48-52-77l-28 13c56 120 178 197 310 197z m0 0c23 0 42-14 59-37 55-11 107-36 148-73 7 3 13 7 19 11l17-26c-4-3-8-5-13-8 21-23 39-48 53-77l28 13c-57 120-179 197-311 197z m-59-651c-55 11-106 36-148 73-6-3-13-7-18-11l-18 26c4 3 9 5 13 8-21 23-39 49-52 77l-28-13c56-120 178-197 310-197-22 0-42 14-59 37z m342 173c-14-28-32-54-53-77 5-3 9-5 13-8l-17-26c-6 4-12 8-19 11-42-37-93-62-148-73v0c-17-23-36-37-59-37 132 0 254 77 311 197l-28 13z m-222 586c-4 0-8 1-12 1l-4-31c5 0 10-1 15-2 208-29 362-207 362-420 0-138-68-267-181-346l18-26c122 85 194 224 194 372 0 230-167 421-392 452z m-121-872c-207 29-362 207-362 420 0 138 68 267 181 346l-18 26c-121-85-194-224-194-372 0-229 168-421 392-451 4-1 9-2 13-2l3 31c-5 0-10 1-15 2z m105 842c5 0 10-1 15-2-7-26-31-45-60-45-34 0-62 28-62 63s28 62 62 62c30 0 55-21 61-48-4 0-8 1-12 1l-4-31z m-14 16c0 17-14 31-31 31-17 0-31-14-31-31s14-32 31-32c17 0 31 14 31 32z m32-876c0-34-28-62-63-62-30 0-54 21-61 49 4-1 9-2 13-2l3 31c-5 0-10 1-15 2 8 26 32 45 60 45 35 0 63-28 63-63z m-32 0c0 18-14 32-31 32-17 0-31-14-31-32s14-31 31-31c17 0 31 14 31 31z m-238 672c-6 3-13 7-18 11l-18-26c4-3 8-5 13-8 33-20 75-35 120-44 2 11 4 21 7 31-39 7-75 20-104 36z m433 11c-6-4-12-8-19-11-29-16-64-29-104-36 3-10 5-20 7-31 46 9 87 24 120 44 5 3 9 5 13 8l-17 26z m-336-412c-45-9-87-24-120-44-4-3-9-5-13-8l18-26c5 4 12 8 18 11 30 17 65 29 104 37-3 9-5 20-7 30z m110 11c-27 0-53-2-79-6 2-10 4-21 7-30 23 3 47 5 72 5s49-2 73-5c2 9 4 20 6 30-25 4-52 6-79 6z m230-55c-33 20-74 35-120 44-2-10-4-21-7-30 40-8 75-20 104-37 7-3 13-7 19-11l17 26c-4 3-8 5-13 8z m-511 195h14c-7-27-32-46-61-46-34 0-62 28-62 62s28 63 62 63c29 0 54-20 61-47h-14v-32z m-16 16c0 17-14 31-31 31s-31-14-31-31c0-17 14-31 31-31s31 14 31 31z m688 0c0-34-28-62-63-62-29 0-53 19-60 46h13v32h-13c7 27 31 47 60 47 35 0 63-28 63-63z m-31 0c0 17-15 31-32 31s-31-14-31-31c0-17 14-31 31-31s32 14 32 31z m-439-162c-10-1-21-3-31-5-9 47-14 99-15 151h32c0-54 6-103 14-146z m204 146c-1-52-6-104-15-151-10 2-20 4-31 5 9 43 14 92 15 146h31z m-204 178c-8-43-14-92-14-146h-32c1 52 6 104 15 151 10-2 21-4 31-5z m204-146h-31c-1 54-6 103-15 146 11 1 21 3 31 5 9-47 14-99 15-151z m-46-178c-2-10-4-21-6-30-19-75-47-120-73-120s-54 45-72 120c-3 9-5 20-7 30-10-1-21-3-31-5 2-10 4-21 7-30 11-45 26-84 44-110 17-23 37-37 59-37 23 0 42 14 59 37v0c19 26 34 65 44 110 3 9 5 20 7 30-10 2-20 4-31 5z m-360 178v-32h562v32h-562z m340 291c-17 23-36 37-59 37-22 0-42-14-59-37-18-26-33-65-44-109 10-2 20-4 31-6 18 75 46 121 72 121s54-46 73-121c10 2 20 4 30 6-10 44-25 83-44 109z m44-109c-10-2-20-4-30-6-24-3-48-4-73-4s-49 1-72 4c-11 2-21 4-31 6-3-10-5-20-7-31 10-2 21-4 31-5 26-4 52-6 79-6 27 0 54 2 79 6 11 1 21 3 31 5-2 11-4 21-7 31z" horiz-adv-x="906" />

<glyph glyph-name="marketing_idea" unicode="&#xe874;" d="M125 131h31v-31h-31v31z m250 0v-15h-31v15h-63v-15h-31v15h-62v-31h250v31h-63z m94 0v-31h31v31h-31z m-344-62v-31h31v31h-31z m344-125v-16h-31v16h-250v-16h-32v16h-31v-32h125v16h31v-16h63v16h31v-16h125v32h-31z m-125-16v-47h-63v47h-31v-78h125v78h-31z m-156 141v-31h312v31h-312z m598 480l4 4h-197c1-5 1-10 1-15 0-6 0-11-1-16-5-99-62-190-147-236l-8-5v-212h31v194c91 53 150 152 156 259h165l-4 4c-6 7-6 17 0 23z m-473 301c-173 0-313-140-313-312 0-113 61-220 156-275v-132h32v150l-9 5c-90 48-148 147-148 252 0 155 127 281 282 281 149 0 272-118 280-266h32c-9 165-145 297-312 297z m156-844v32h-31v-32h-250v125h-32v-125h-31v-31h31v-47h32v47h250v-47h31v47h31v31h-31z m-219 266v-156h31v156h-31z m94 0v-156h31v156h-31z m155 281h-62c0-5 1-10 1-15s-1-11-1-16h62c1 5 1 10 1 16s0 10-1 15z m94 0h-62c0-5 0-10 0-15s0-11 0-16h62c1 5 1 10 1 16 0 5 0 10-1 15z m226-15l52 51c4 4 5 11 3 17-3 6-8 10-15 10h-140c-4 0-8-2-11-5l-58-58h44l31 31h97l-32-31-4-4c-6-6-6-16 0-23l4-4 32-31h-97l-31 31h-44l58-58c3-3 7-5 11-5h140c7 0 12 4 15 10 2 6 1 13-3 17l-52 52z m-288 0c0-6 0-11 0-16-8-114-103-203-218-203-121 0-219 98-219 219s98 218 219 218c115 0 210-89 218-203 0-5 0-10 0-15z m-31 0c0 5 0 10-1 15-8 96-88 172-186 172-104 0-188-84-188-187s84-188 188-188c98 0 178 76 186 172 1 5 1 10 1 16z m-62 0c0-6-1-11-1-16-8-62-61-109-124-109-69 0-125 56-125 125s56 125 125 125c63 0 116-48 124-110 0-5 1-10 1-15z m-32 0c0 5 0 10-1 15-7 45-46 78-92 78-52 0-94-42-94-93s42-94 94-94c46 0 85 34 92 78 1 5 1 10 1 16z m-1 15h-92v-31h92c1 5 1 10 1 16s0 10-1 15z m-92 0h27c-6 10-16 16-27 16-18 0-32-14-32-31s14-32 32-32c11 0 21 7 27 16h-27v31z" horiz-adv-x="875" />

<glyph glyph-name="confirm" unicode="&#xe876;" d="M500 833c-267 0-483-216-483-483s216-483 483-483c267 0 483 216 483 483s-216 483-483 483z m-42-608l0 0-29-29 0 0 0 0-29 29 0 0-112 113 29 29 112-113 254 254 30-29-255-254z" horiz-adv-x="1000" />

<glyph glyph-name="analytics" unicode="&#xe877;" d="M550 67v-100h-33v100h33z m417 583v-567h-867v567h-33v-600h450v17h33v-17h450v600h-33z m100 133h-410l-67 67h-114l-66-67h-410v-100h1067v100z m-1034-33h391l66 67h86l67-67h390v-33h-1000v33z m567-833c0-37-30-67-67-67s-66 30-66 67c0 31 21 57 50 64v-14h33v14c29-7 50-33 50-64z m-33 0c0 18-15 33-34 33-18 0-33-15-33-33s15-34 33-34c19 0 34 15 34 34z m-267 333c0-37-30-67-67-67s-66 30-66 67 30 67 66 67c13 0 24-4 34-10l-12-12 24-23 12 12c6-10 9-22 9-34z m-33 0c0 18-15 33-34 33s-33-15-33-33 15-33 33-33 34 15 34 33z m250 217c0-12-4-24-10-34l-12 12-23-23 12-13c-10-6-22-9-34-9s-24 3-34 9l13 13-24 23-12-12c-6 10-10 22-10 34 0 37 30 66 67 66s67-29 67-66z m-34 0c0 18-15 33-33 33s-33-15-33-33 15-34 33-34 33 15 33 34z m100-110l-76 76-12 12-23-23 12-13 75-75 13-12 23 23-12 12z m-178 88l-12-12-126-126-12-12 24-23 12 12 125 125 13 13-24 23z m495 72c0-37-30-67-67-67-12 0-23 3-33 9l12 13-24 23-12-12c-6 10-9 22-9 34 0 37 30 66 66 66s67-29 67-66z m-33 0c0 18-15 33-34 33s-33-15-33-33 15-34 33-34 34 15 34 34z m-184-217c0-37-29-67-66-67s-67 30-67 67c0 12 3 24 9 34l13-12 23 23-12 12c10 6 22 10 34 10s24-4 33-10l-12-12 24-23 12 12c6-10 9-22 9-34z m-33 0c0 18-15 33-33 33s-34-15-34-33 15-33 34-33 33 15 33 33z m138 195l-12-12-126-126-12-12 24-23 12 12 126 125 12 13-24 23z m-238 288h-33v-33h33v33z m-350-200h-33v-33h33v33z m700-366h-33v-34h33v34z" horiz-adv-x="1067" />

<glyph glyph-name="email" unicode="&#xe878;" d="M469-150h-375c-52 0-94 42-94 94v812c0 52 42 94 94 94h375c52 0 94-42 94-94v-93h-32v93c0 35-28 63-62 63h-375c-35 0-63-28-63-63v-812c0-35 28-63 63-63h375c34 0 62 28 62 63v250h32v-250c0-52-42-94-94-94z m-297 781c-5 0-10-2-13-7-2-2-3-5-3-8v15h16z m578-15v-391h-447l-147-147v538c0-5 3-10 7-13l25-16v-434l103 103h428v331l24 16c5 3 7 8 7 13z m0 15v-15c0 3-1 6-3 8-3 5-8 7-13 7h16z m-578 0h562c-3 0-6-1-8-2l-43-29h-460l-42 29c-3 1-6 2-9 2z m575-7c-3 5-8 7-13 7-3 0-6-1-8-2l-43-29-230-153-230 153-42 29c-3 1-6 2-9 2-5 0-10-2-13-7-2-2-3-5-3-8 0-5 3-10 7-13l25-16 265-178 266 178 24 16c5 3 7 8 7 13 0 3-1 6-3 8z m-341-274h-31v-31h31v31z m63 0h-31v-31h31v31z m62 0h-31v-31h31v31z m-31-156h-31v-188h-375v719h375v-62h31v93h-437v-781h437v219z m-156-250h-125v-32h125v32z" horiz-adv-x="750" />

<glyph glyph-name="funnel" unicode="&#xe879;" d="M500 6c0-29-20-53-47-60v13h-31v-13c-27 7-47 31-47 60h31c0-17 14-31 32-31 17 0 31 14 31 31 0 10-22 26-38 33-9 4-56 27-56 61 0 29 20 54 47 61v-14h31v14c27-7 47-32 47-61h-31c0 17-14 31-31 31-18 0-32-14-32-31 0-10 22-26 38-33 9-4 56-26 56-61z m63 63h-32v-31h32v31z m-219 0h-31v-31h31v31z m297-16c0-112-91-203-203-203s-204 91-204 203 92 203 204 203 203-91 203-203z m-32 0c0 95-77 172-171 172-95 0-172-77-172-172s77-172 172-172c94 0 171 77 171 172z m-187-94v-47h31v47h-31z m0 235v-47h31v47h-31z m-31 625v31h-375c-9 0-16-7-16-16v-78c0-3 1-7 3-10l325-401v-73h31v78c0 4-1 7-3 10l-325 402v57h125v15h32v-15h203z m468 31h-375v-31h204v15h31v-15h125v-57l-325-402c-2-3-3-6-3-10v-78h31v73l325 401c2 3 3 7 3 10v78c0 9-7 16-16 16z m-439-460l-232 371v73h-32v-78c0-3 1-5 3-8l232-371v-89h31v93c0 3-1 6-2 9z m268 444v-73l-232-371c-2-3-3-6-3-9v-93h31v89l232 371c2 3 3 5 3 8v78h-31z m-266 16v-328h31v328h-31z m67-254l-36-36v-38h-31v38l-36 36-22-23 62-62c4-3 7-5 12-5s8 2 11 5l62 62-22 23z m-98 192h-32v-32h32v32z m-63 0h-31v-32h31v32z m-62 0h-32v-32h32v32z m125-63h-32v-31h32v31z m0-62h-32v-32h32v32z m-63 62h-31v-31h31v31z m188 63h-32v-32h32v32z m62 0h-31v-32h31v32z m63 0h-32v-32h32v32z m-125-63h-32v-31h32v31z m0-62h-32v-32h32v32z m62 62h-31v-31h31v31z" horiz-adv-x="875" />

<glyph glyph-name="investment" unicode="&#xe87a;" d="M1000 350c0 276-224 500-500 500-276 0-500-224-500-500 0-127 47-242 125-330v2h31v-35c10-10 21-19 32-28h0v-109h31v87c80-55 177-87 281-87s201 32 281 87v22h31c11 9 22 18 32 28v35h31v-2c78 88 125 203 125 330z m-500-469c-258 0-469 211-469 469s211 469 469 469 469-211 469-469-211-469-469-469z m313 78v-109h-32v109h32z m-657 63v-172h-31v172h31z m719 0v-172h-31v172h31z m-375 750c-233 0-422-189-422-422 0-233 189-422 422-422 233 0 422 189 422 422 0 233-189 422-422 422z m0-813c-215 0-391 176-391 391s176 391 391 391 391-175 391-391-175-391-391-391z m0 735c-189 0-344-154-344-344s155-344 344-344 344 155 344 344-154 344-344 344z m0-656c-172 0-312 140-312 312 0 172 140 313 312 313 172 0 313-141 313-313 0-172-141-312-313-312z m0 578c-146 0-266-120-266-266s120-266 266-266 266 120 266 266-120 266-266 266z m0-500c-129 0-234 105-234 234 0 129 105 234 234 234 129 0 234-105 234-234 0-129-105-234-234-234z m78 172c0-38-27-70-62-77v14h-32v-14c-35 7-62 39-62 77h31c0-26 21-47 47-47 26 0 47 21 47 47 0 16-32 38-53 48-8 3-72 33-72 77 0 37 27 69 62 76v-14h32v14c35-7 62-39 62-76h-31c0 25-21 46-47 46-26 0-47-21-47-46 0-17 32-39 53-49 8-3 72-33 72-76z m-62 250v-63h-32v63h32z m0-313v-62h-32v62h32z m-125 109h-32v32h32v-32z m250 0h-32v32h32v-32z" horiz-adv-x="1000" />

<glyph glyph-name="pin" unicode="&#xe87b;" d="M375 850c-206 0-375-169-375-381 0-269 269-538 350-613 6-6 19-6 25-6s19 0 25 6c81 75 350 344 350 613 0 212-169 381-375 381z m0-837c-131 137-250 312-250 462 0 138 113 250 250 250s250-112 250-256c0-150-119-325-250-456z m0 587c69 0 125-56 125-125s-56-125-125-125-125 56-125 125 56 125 125 125z" horiz-adv-x="750" />

<glyph glyph-name="marketting" unicode="&#xe87c;" d="M578 413v-266c0-3 0-5-2-7l-62-125c-3-5-8-9-14-9s-11 4-14 9l-62 125c-1 2-2 4-2 7v266h31v-250h-15v-32h25l37-74 37 74h26v32h-16v250h31z m-62-250v281c-5 0-11 0-16 0s-10 0-16 0v-281h-46v-32h125v32h-47z m187 484c0-107-83-195-187-203v32c87 8 156 81 156 171 0 95-77 172-172 172-95 0-172-77-172-172 0-90 69-163 156-171v-32c-104 8-187 96-187 203 0 112 91 203 203 203s203-91 203-203z m-187 78h-32v-72l27-26-22-22-5 4v-165c6 0 11 0 16 0s11 0 16 0v103l-5-5-22 22 27 27v134z m67-67l-94-94 22-22 94 94-22 22z m-150 47l-22-22 78-78 22 22-78 78z m567-783v53h-397l-31-31h-144l-31 31h-397v-53l72-72h856l72 72z m-969 13v9h353l31-32h170l31 32h353v-9l-54-54h-830l-54 54z m63 540c0 17 14 31 31 31h172v32h-172c-34 0-62-28-62-63v-469h31v469z m844 0c0 35-28 63-63 63h-172v-32h172c17 0 31-14 31-31v-469h32v469z m-63 0h-219v-31h188v-375h-266v-31h297v437z m-453-406h-266v375h188v31h-219v-437h297v31z m-47 203h-31v-31h31v31z m-62 0h-32v-31h32v31z m-63 0h-31v-31h31v31z m531 0h-31v-31h31v31z m-62 0h-31v-31h31v31z m-63 0h-31v-31h31v31z" horiz-adv-x="1000" />

<glyph glyph-name="optimization" unicode="&#xe87d;" d="M683 799l-47 47c-6 6-16 6-22 0l-36-36-36 36c-6 6-16 6-22 0l-36-36-35 36c-6 6-16 6-23 0l-35-36-36 36c-6 6-16 6-22 0l-36-36-36 36c-6 6-16 6-22 0l-36-36-36 36c-6 6-16 6-22 0l-36-36-35 36c-6 6-16 6-23 0l-46-47c-3-3-5-7-5-11v-922c0-9 7-16 16-16h531c4 0 8 2 11 4l125 125c3 3 5 7 5 12v797c0 4-2 8-5 11z m-11-824h-38l-71-72v-37h-32v15h-500v900l32 31 35-36c6-6 16-6 23 0l35 36 36-36c6-6 16-6 22 0l36 36 36-36c6-6 16-6 22 0l36 36 36-36c6-6 16-6 22 0l36 36 35-36c6-6 16-6 23 0l35 36 36-36c6-6 16-6 22 0l36 36 31-31v-775h16v-31z m-359 422h-157v31h157v-31z m-188 0h-31v31h31v-31z m188-63h-157v32h157v-32z m-188 0h-31v32h31v-32z m188-62h-157v31h157v-31z m-188 0h-31v31h31v-31z m188-63h-157v32h157v-32z m-188 0h-31v32h31v-32z m469 188h-156v31h156v-31z m-188 0h-31v31h31v-31z m188-63h-156v32h156v-32z m-188 0h-31v32h31v-32z m188-62h-156v31h156v-31z m-188 0h-31v31h31v-31z m188-63h-156v32h156v-32z m-188 0h-31v32h31v-32z m-93-62h-157v31h157v-31z m-188 0h-31v31h31v-31z m188-63h-157v32h157v-32z m-188 0h-31v32h31v-32z m719 766h-31c-35 0-63-28-63-62v-766c0-2 0-4 1-6l63-156c2-6 8-10 14-10s12 4 15 10l62 156c1 2 1 4 1 6v766c0 34-28 62-62 62z m47-172h-16v-640h16v-32h-23l-40-98-39 98h-23v32h15v640h-15v31h15v79c0 17 14 31 32 31h31c17 0 31-14 31-31v-79h16v-31z m0-640v-32h-125v32h47v-16h31v16h47z m-47 640v-656h-31v656h31z m47 31v-31h-125v31h125z m-360-125h-93v32h93v-32z m141-578v-31h-109v-109h-32v125c0 8 7 15 16 15h125z m-469 703c-60 0-109-49-109-109s49-109 109-109 110 49 110 109-50 109-110 109z m0-187c-43 0-78 35-78 78s35 78 78 78 78-35 78-78-35-78-78-78z m47 94v-32h-31v-31h-31v31h-32v32h32v31h31v-31h31z m234-125c-60 0-109 49-109 109s49 109 109 109c61 0 110-49 110-109s-49-109-110-109z m0 187c-43 0-78-35-78-78s35-78 78-78 79 35 79 78-35 78-79 78z" horiz-adv-x="906" />

<glyph glyph-name="value" unicode="&#xe889;" d="M703 788h-156v46c0 8-8 16-16 16h-343c-8 0-16-8-16-16v-46h-156c-8 0-16-8-16-16v-906c0-8 8-16 16-16h687c8 0 16 8 16 16v906c0 8-8 16-16 16z m-500 31h313v-125h-313v125z m485-938h-657v31h657v-31z m0 63h-657v812h141v-78c0-8 8-15 16-15h343c8 0 16 7 16 15v78h141v-812z m-63 62h-531c-10 0-16 7-16 16v687c0 10 6 16 16 16h47v-31h-32v-656h500v656h-31v31h47c9 0 16-6 16-16v-687c0-9-7-16-16-16z m-156 719h-219c-9 0-16 6-16 16v47h32v-32h187v32h31v-47c0-10-6-16-15-16z m-78-125h156v-31h-156v31z m-219-78h375v-31h-375v31z m0-63h375v-31h-375v31z m0-62h375v-31h-375v31z m0-63h375v-31h-375v31z m0-62h375v-31h-375v31z m0-63h219v-31h-219v31z m672 16h31v-31h-31v31z m0-62h31v-32h-31v32z m0-63h31v-31h-31v31z m78 688h-16v46c0 8-8 16-15 16h-63c-8 0-15-8-15-16v-46h-16c-8 0-16-8-16-16v-781c0-4 0-5 2-8l62-125c3-5 8-8 14-8s11 3 14 8l63 125c2 3 2 4 2 8v781c0 8-8 16-16 16z m-78 31h31v-31h-31v31z m-31-63h93v-437h-93v437z m0-468h93v-282h-93v282z m46-388l-37 75h75l-38-75z" horiz-adv-x="938" />

<glyph glyph-name="social" unicode="&#xe88a;" d="M283-150c-5 0-8 2-11 5l-162 162h-27c-46 0-83 36-83 83v533c0 47 37 84 83 84h284v-34h-284c-28 0-50-21-50-50v-533c0-28 22-50 50-50h34c5 0 8-2 11-5l139-138v126c0 10 6 17 16 17h300c29 0 50 22 50 50v167c0 10 7 16 17 16h82l-97 227c-2 2-2 5-2 7v116c0 29-21 50-50 50h-116v34h116c47 0 84-37 84-84v-113l98-230c2-2 2-5 2-7v-16c0-10-7-17-17-17h-83v-150c0-47-37-83-84-83h-283v-150c0-7-3-14-10-15-2-2-5-2-7-2z m500 133c-1 0-5 0-6 2-7 2-10 8-10 15v150h-67v33h83c10 0 17-6 17-16v-127l138 138c4 4 7 5 12 5h33c29 0 50 22 50 50v534c0 28-21 50-50 50h-500c-28 0-50-22-50-50v-150c0-2 0-5-1-7l-97-227h82c10 0 16-6 16-16v-134c0-28 22-50 50-50h117v-33h-117c-46 0-83 37-83 83v117h-83c-10 0-17 7-17 17v16c0 2 0 5 2 7l98 230v147c0 46 37 83 83 83h500c47 0 84-37 84-83v-534c0-46-37-83-84-83h-26l-162-162c-3-3-7-5-12-5z m-50 734h234v-34h-234v34z m0-67h234v-33h-234v33z m0-67h167v-33h-167v33z m-633 34h200v-34h-200v34z m0-67h200v-33h-200v33z m0-67h133v-33h-133v33z" horiz-adv-x="1067" />

<glyph glyph-name="assurance" unicode="&#xe88b;" d="M234 288c-4 0-7 1-11 4l-120 121h-87c-10 0-16 6-16 15v406c0 10 6 16 16 16h593c10 0 16-6 16-16v-406c0-9-6-15-16-15h-46v31h31v375h-563v-375h78c5 0 8-2 11-5l99-98v87c0 10 6 16 15 16h125v-31h-109v-110c0-6-3-12-9-14-2-1-5-1-7-1z m500-188c0 23-12 42-29 53 9 11 14 25 14 41 0 34-28 62-63 62h-181l55 152c0 1 1 3 1 5v31c0 34-28 62-62 62-33 0-61-26-63-59l-45-89-88-102h-257c-8 0-16-8-16-15v-375c0-8 8-16 16-16h234c8 0 16 8 16 16v359h15c5 0 10 2 13 5l94 109c0 2 1 2 1 3l47 94c2 3 2 5 2 8 0 17 14 31 31 31s31-14 31-31v-28l-61-169c-1-6-1-11 2-16 3-4 7-6 12-6h203c17 0 32-14 32-31s-15-31-32-31c-8 0-15-8-15-16s7-16 15-16h16c17 0 31-14 31-31s-14-31-31-31h-31c-8 0-16-8-16-16s8-15 16-15c17 0 31-15 31-32s-14-31-31-31h-16c-8 0-16-8-16-16s8-15 16-15c17 0 31-14 31-32s-14-31-31-31h-262l-60 30-14-28 63-31c3-2 4-2 7-2h266c34 0 63 28 63 62 0 16-5 30-15 41 19 11 30 31 30 53 0 13-5 25-11 35 25 9 42 32 42 59z m-500-219h-203v344h203v-344z m-62 63h31v-32h-31v32z m594 250c-2 0-5 0-7 1-6 2-9 8-9 14v110h-187v31h203c9 0 15-6 15-16v-87l99 98c3 3 6 5 11 5h78v344h-313v31h328c10 0 16-6 16-16v-375c0-9-6-15-16-15h-87l-120-121c-4-3-7-4-11-4z m-532 453h32v-31h-32v31z m63 0h31v-31h-31v31z m62 0h32v-31h-32v31z m297-16h250v-31h-250v31z m0-93h250v-32h-250v32z m0-94h250v-31h-250v31z m-140 94h-407c-9 0-15 6-15 15v156c0 10 6 16 15 16h407c9 0 15-6 15-16v-156c0-9-6-15-15-15z m-391 31h375v125h-375v-125z" horiz-adv-x="1000" />

<glyph glyph-name="impact" unicode="&#xe88c;" d="M817-117c0 2 0 4-2 5l-92 262h260c9 0 17 8 17 17v483h-33v-467h-867v467h-33v-483c0-9 8-17 16-17h260l-91-262c0-1-2-3-2-5h-250v-33h1067v33h-250z m-300 0h-232l93 267h139v-267z m33 0v267h138l94-267h-232z m500 800h-1033c-10 0-17 7-17 17v67c0 10 7 16 17 16h390l28 57c3 7 8 10 15 10h167c6 0 11-3 15-10l28-57h390c10 0 17-6 17-16v-67c0-10-7-17-17-17z m-1017 34h1000v33h-383c-7 0-12 3-15 10l-28 57h-147l-28-57c-4-7-9-10-15-10h-384v-33z m450 66h100v-33h-100v33z m-50-200c19 0 34-15 34-33s-15-33-34-33-33 15-33 33 15 33 33 33z m167-233c18 0 33-15 33-33 0-19-15-34-33-34s-33 15-33 34c0 18 15 33 33 33z m-333 0h-100v33h100c36 0 66 30 66 67v100c0 55 45 100 100 100s100-45 100-100v-33h-33v33c0 37-30 67-67 67s-66-30-66-67v-100c0-55-45-100-100-100z m645 138l-67-66-23 23 38 38h-93c-37 0-67-30-67-66v-100c0-55-45-100-100-100s-100 45-100 100v33h33v-33c0-37 30-67 67-67s67 30 67 67v100c0 55 45 100 100 100h93l-38 38 23 23 67-66c6-7 6-17 0-24z m-412-5h33v-33h-33v33z m0-66h33v-34h-33v34z m-367 233h34v-33h-34v33z m767 0h33v-33h-33v33z m0-400h33v-33h-33v33z m-767 0h34v-33h-34v33z" horiz-adv-x="1067" />

<glyph glyph-name="arrow-down" unicode="&#xe88e;" d="M377-135a61 61 0 0 0-8 6l-44 44-309 304a57 57 0 0 0 0 80 59 59 0 0 0 81 0l44-43 217-213v750a58 58 0 0 0 115 0v-751l263 259a59 59 0 0 0 81 0 57 57 0 0 0 0-80l-44-43-309-305a53 53 0 0 0-9-7 63 63 0 0 0-39-16 54 54 0 0 0-39 15z" horiz-adv-x="833" />

<glyph glyph-name="learning-tools" unicode="&#xe890;" d="M766 381c7 0 15 8 15 16v62c0 8-8 16-15 16h-16v109c0 44-34 79-78 79h-469c-44 0-78-35-78-79v-468c0-44 34-78 78-78h469c44 0 78 34 78 78v78h16c7 0 15 8 15 15v94c0 8-8 16-15 16h-16v62h16z m-47-265c0-27-21-47-47-47h-469c-26 0-47 20-47 47v468c0 27 21 47 47 47h469c26 0 47-20 47-47v-468z m-47-110v-156h-31v94h-407v-94h-31v156h31v-31h407v31h31z m0 844v-156h-31v31h-407v-31h-31v156h31v-94h407v94h31z m-313-406c-34 0-62 28-62 62s28 63 62 63 63-28 63-63-28-62-63-62z m0 94c-17 0-31-15-31-32s14-31 31-31 32 14 32 31-14 32-32 32z m157-94c-35 0-63 28-63 62s28 63 63 63 62-28 62-63-28-62-62-62z m0 94c-18 0-32-15-32-32s14-31 32-31 31 14 31 31-14 32-31 32z m-235-250c-34 0-62 28-62 62 0 34 28 63 62 63s63-29 63-63c0-34-28-62-63-62z m0 93c-17 0-31-14-31-31 0-17 14-31 31-31s32 14 32 31c0 17-15 31-32 31z m313-93c-35 0-63 28-63 62 0 34 28 63 63 63s62-29 62-63c0-34-28-62-62-62z m0 93c-17 0-31-14-31-31 0-17 14-31 31-31s31 14 31 31c0 17-14 31-31 31z m-156-93c-35 0-63 28-63 62 0 34 28 63 63 63 34 0 62-29 62-63 0-34-28-62-62-62z m0 93c-18 0-32-14-32-31 0-17 14-31 32-31 17 0 31 14 31 31 0 17-14 31-31 31z m-79-250c-34 0-62 28-62 63s28 62 62 62 63-28 63-62-28-63-63-63z m0 94c-17 0-31-14-31-31s14-31 31-31 32 14 32 31-14 31-32 31z m157-94c-35 0-63 28-63 63s28 62 63 62 62-28 62-62-28-63-62-63z m0 94c-18 0-32-14-32-31s14-31 32-31 31 14 31 31-14 31-31 31z m93 563h-343v31h343v-31z m0-907h-343v31h343v-31z m-515 750h-31c0 52 42 94 93 94v-31c-34 0-62-28-62-63z m-63 0h-31c0 86 70 157 156 157v-32c-68 0-125-56-125-125z m688-656v31c34 0 62 28 62 63h32c0-52-43-94-94-94z m0-63v32c69 0 125 56 125 125h31c0-86-70-157-156-157z m-500 657h-31v31h31v-31z m469 0h-32v31h32v-31z m-469-469h-31v31h31v-31z m469 0h-32v31h32v-31z" horiz-adv-x="875" />

<glyph glyph-name="learning-trend" unicode="&#xe891;" d="M500 850c-5 0-11 0-16 0v0h16z m0 0c5 0 11 0 16 0v0h-16z m-328-234h-31v-32h31v32z m-31-63h-32v-31h32v31z m-32-62h-31v-32h31v32z m-15-63h-31v-31h31v31z m0-62h-31v-32h31v32z m0-63h-31v-31h31v31z m15-62h-31v-32h31v32z m32-63h-32v-31h32v31z m31-62h-31v-32h31v32z m828 234c0-275-225-500-500-500-277 0-500 225-500 500 0 270 216 492 484 500 5 0 11 0 16 0s11 0 16 0c268-8 484-230 484-500z m-484 375c193-8 351-164 359-359h94c-8 245-206 445-453 453v-94z m-360-375c0-189 155-344 344-344s344 155 344 344-155 344-344 344-344-155-344-344z m24 342l65-65c63 57 147 95 238 98v94c-116-5-222-52-303-127z m-22-662l65 65c-60 68-98 157-98 255s38 188 98 253l-65 66c-78-83-127-196-127-319s49-236 127-320z m662-22l-65 65c-67-60-157-98-255-98s-187 38-253 98l-66-65c85-78 197-127 321-127s234 49 318 127z m149 326h-94c-3-92-41-175-98-237l65-66c75 80 122 186 127 303z m-188 16c0-153-123-278-276-281-2 0-3 0-5 0s-3 0-5 0c-153 3-276 128-276 281 0 155 126 281 281 281 155 0 281-126 281-281z m-206 238c27-33 47-85 58-146h98c-28 71-84 124-156 146z m31-175h-212c-2-21-3-41-3-63s1-42 3-62h212c2 20 3 40 3 62s-1 42-3 63z m-208 31h204c-18 97-61 156-102 156s-84-59-102-156z m-129 0h98c11 61 31 111 58 145-72-23-128-76-156-145z m-11-156h105c-2 20-4 40-4 62s2 42 4 63h-105c-5-21-8-41-8-63s3-42 8-62z m167-177c-27 33-47 84-58 145h-98c28-68 84-122 156-145z m177 145h-204c18-97 61-156 102-156s84 59 102 156z m129 0h-98c-11-61-31-111-58-145 72 23 128 77 156 145z m11 32c5 20 8 40 8 62s-3 42-8 63h-104c1-21 3-41 3-63s-2-42-3-62h104z" horiz-adv-x="1000" />

<glyph glyph-name="learning-value" unicode="&#xe892;" d="M625 6h-531c-10 0-16 7-16 16v687c0 10 6 16 16 16h47v-31h-32v-656h500v656h-31v31h47c9 0 16-6 16-16v-687c0-9-7-16-16-16z m-141 735v47h-31v-32h-187v32h-32v-47c0-10 7-16 16-16h219c9 0 15 6 15 16z m63-141h-156v-31h156v31z m0-78h-375v-31h375v31z m0-63h-375v-31h375v31z m0-62h-375v-31h375v31z m0-63h-375v-31h375v31z m0-62h-375v-31h375v31z m-156-63h-219v-31h219v31z m484 16h-31v-31h31v31z m0-62h-31v-32h31v32z m0-63h-31v-31h31v31z m63 672v-781c0-4 0-5-2-8l-63-125c-3-5-7-8-14-8s-11 3-14 8l-62 125c-2 3-2 4-2 8v781c0 8 8 16 16 16h16v46c0 8 7 16 15 16h63c7 0 15-8 15-16v-46h16c8 0 16-8 16-16z m-94 16h31v31h-31v-31z m53-813h-75l37-75 38 75z m9 313h-93v-282h93v282z m0 468h-93v-437h93v437z m-187 16v-906c0-8-8-16-16-16h-687c-8 0-16 8-16 16v906c0 8 8 16 16 16h156v46c0 8 8 16 16 16h343c8 0 16-8 16-16v-46h156c8 0 16-8 16-16z m-516-78h313v125h-313v-125z m-172-750h657v812h-141v-78c0-8-8-15-16-15h-343c-8 0-16 7-16 15v78h-141v-812z m657-32h-657v-31h657v31z" horiz-adv-x="938" />

<glyph glyph-name="learning-plan" unicode="&#xe893;" d="M817-117c0 2 0 4-2 5l-92 262h260c9 0 17 8 17 17v483h-33v-467h-867v467h-33v-483c0-9 8-17 16-17h260l-91-262c0-1-2-3-2-5h-250v-33h1067v33h-250z m-300 0h-232l93 267h139v-267z m33 0v267h138l94-267h-232z m500 800h-1033c-10 0-17 7-17 17v67c0 10 7 16 17 16h390l28 57c3 7 8 10 15 10h167c6 0 11-3 15-10l28-57h390c10 0 17-6 17-16v-67c0-10-7-17-17-17z m-1017 34h1000v33h-383c-7 0-12 3-15 10l-28 57h-147l-28-57c-4-7-9-10-15-10h-384v-33z m550 33h-100v33h100v-33z m-150-233c-18 0-33 15-33 33s15 33 33 33 34-15 34-33-15-33-34-33z m167-234c-18 0-33 15-33 34 0 18 15 33 33 33s33-15 33-33c0-19-15-34-33-34z m-333 67h-100v33h100c36 0 66 30 66 67v100c0 55 45 100 100 100s100-45 100-100v-33h-33v33c0 37-30 67-67 67s-66-30-66-67v-100c0-55-45-100-100-100z m645 138l-67-66-23 23 38 38h-93c-37 0-67-30-67-66v-100c0-55-45-100-100-100s-100 45-100 100v33h33v-33c0-37 30-67 67-67s67 30 67 67v100c0 55 45 100 100 100h93l-38 38 23 23 67-66c6-7 6-17 0-24z m-379-38h-33v33h33v-33z m0-67h-33v34h33v-34z m-366 234h-34v33h34v-33z m766 0h-33v33h33v-33z m0-400h-33v33h33v-33z m-766 0h-34v33h34v-33z" horiz-adv-x="1067" />

<glyph glyph-name="learning-story" unicode="&#xe894;" d="M664 614l-95 55c15 20 25 48 25 81 0 47-11 102-94 102s-94-55-94-102c0-31 10-59 25-81l-95-55c-5-3-8-8-8-14v-31c0-35 22-63 47-63h250c25 0 47 28 47 63v31c0 6-3 11-8 14z m-164 205c47 0 63-17 63-71 0-42-22-85-63-85s-62 43-62 85c0 54 15 71 62 71z m141-250c0-19-11-31-16-31h-250c-5 0-16 12-16 31v22l96 54c14-9 28-14 45-14s33 5 45 14l96-54v-22z m351-611l-95 55c16 20 25 48 25 81 0 47-11 101-94 101s-94-54-94-101c0-31 10-60 25-81l-95-55c-5-3-8-8-8-14v-32c0-10 3-21 7-31h-325c4 10 6 21 6 31v32c0 6-3 11-8 14l-95 55c15 20 25 48 25 81 0 47-11 101-94 101s-94-54-94-101c0-31 10-60 25-81l-95-55c-5-3-8-8-8-14v-32c0-34 22-62 47-62h906c25 0 47 28 47 62v32c0 6-3 11-8 14z m-820 205c47 0 62-18 62-71 0-42-21-86-62-86s-63 44-63 86c0 53 16 71 63 71z m141-251c0-18-11-31-16-31h-250c-5 0-16 13-16 31v22l96 55c12-9 28-14 45-14s33 5 45 14l96-55v-22z m515 251c47 0 63-18 63-71 0-42-22-86-63-86s-62 44-62 86c0 53 15 71 62 71z m141-251c0-18-11-31-16-31h-250c-5 0-15 13-15 31v22l95 55c14-9 28-14 45-14s33 5 45 14l96-55v-22z m-516 407h-31v31h31v-31z m63 0h-32v31h32v-31z m62 0h-31v31h31v-31z m-156-250h-125v31h125v188h31v-188c0-17-14-31-31-31z m281 0h-125c-17 0-31 14-31 31v188h31v-188h125v-31z m-187 0h-32v219h32v-219z m297 469h-110v-32h110c90 0 156-59 156-140v-16h-235v31h32v32h-532v-32h32v-31h-235v16c0 81 66 140 157 140h109v32h-109c-110 0-188-72-188-172v-63c0-26 20-47 47-47h203c27 0 47 21 47 47v78h406v-78c0-26 20-47 47-47h203c27 0 47 21 47 47v63c0 100-78 172-187 172z m-547-235c0-8-8-15-16-15h-203c-8 0-16 7-16 15v16h235v-16z m703 0c0-8-8-15-16-15h-203c-8 0-16 7-16 15v16h235v-16z" horiz-adv-x="1000" />

<glyph glyph-name="metrics-optimise" unicode="&#xe895;" d="M719 506c-35 0-63 28-63 63s28 62 63 62 62-28 62-62-28-63-62-63z m0 94c-17 0-31-14-31-31s14-31 31-31 31 14 31 31-14 31-31 31z m-625 141c0 9 6 15 15 15h422v32h-422c-26 0-46-21-46-47v-422h31v422z m844-782v422h-32v-422c0-9-6-15-15-15h-422v-32h422c26 0 47 21 47 47z m-594 766h-219v-31h219v31z m-188-62h-31v-32h31v32z m63 0h-31v-32h31v32z m62 0h-31v-32h31v32z m235-297h-32v-32h32v32z m359-360h-219v-31h219v31z m0 63h-31v-31h31v31z m-62 0h-32v-31h32v31z m-63 0h-31v-31h31v31z m-344 78h-31v-31h31v31z m-218 0h-32v-31h32v31z m593 141c-4 0-9 1-12 6l-50 62-50-62c-5-5-11-8-19-5l-78 31c-6 2-9 8-9 14v79h-79c-6 0-12 3-14 9l-31 78c-3 6 0 14 5 19l62 50-62 50c-5 4-8 11-5 19l31 78c2 6 8 9 14 9h79v78c0 6 3 13 9 14l78 31c6 4 14 0 19-4l50-63 50 63c4 6 12 8 19 4l78-31c6-1 9-8 9-14v-78h78c6 0 13-3 14-9l31-78c4-7 0-15-4-19l-63-50 63-50c4-5 8-11 4-19l-31-78c-1-6-8-9-14-9h-78v-79c0-6-3-12-9-14l-78-31c-2-1-5-1-7-1z m-62 109c4 0 9-2 12-6l55-69 58 23v83c0 10 6 16 15 16h83l24 58-69 54c-5 3-6 8-6 13s1 9 6 12l69 55-24 58h-83c-9 0-15 6-15 15v83l-58 24-55-69c-6-8-18-8-25 0l-54 69-58-24v-83c0-9-6-15-16-15h-83l-23-58 69-55c3-3 6-8 6-12s-2-10-6-13l-69-54 23-58h83c10 0 16-6 16-16v-83l58-23 54 69c3 4 8 6 13 6z m0 31c-78 0-141 63-141 141s63 140 141 140 140-62 140-140-62-141-140-141z m0 250c-61 0-110-48-110-109s49-110 110-110 109 49 109 110-48 109-109 109z m-225-547l62 50c5 5 8 11 5 19l-31 78c-2 5-8 10-14 10h-78v78c0 6-5 12-10 14l-78 31c-6 3-14 0-19-5l-50-62-50 62c-4 5-11 8-18 5l-79-31c-4-2-9-8-9-14v-78h-78c-6 0-13-5-14-10l-31-78c-4-6 0-14 4-19l63-50-63-50c-6-4-8-12-4-18l31-79c1-6 8-9 14-9h78v-78c0-6 5-13 9-14l79-31c6-4 14 0 18 4l50 63 50-63c3-4 8-6 13-6 1 0 4 0 6 2l78 31c6 1 10 8 10 14v78h78c6 0 12 5 14 9l31 79c3 6 0 14-5 18l-62 50z m11-125h-83c-8 0-16-8-16-15v-83l-58-24-54 69c-3 5-8 6-13 6s-9-1-12-6l-55-69-58 24v83c0 7-8 15-15 15h-83l-24 58 69 55c5 3 6 8 6 12s-1 10-6 13l-69 54 24 58h83c7 0 15 8 15 16v83l58 23 55-69c6-7 19-7 25 0l54 69 58-23v-83c0-8 8-16 16-16h83l23-58-69-54c-4-3-6-8-6-13s2-9 6-12l69-55-23-58z m-217 139c-16 7-38 22-38 33 0 17 14 31 31 31s32-14 32-31h31c0 30-21 53-47 61v33h-31v-33c-27-6-47-31-47-61 0-34 47-56 56-61 16-6 38-22 38-33 0-17-15-31-32-31s-31 14-31 31h-31c0-29 20-53 47-61v-32h31v32c26 7 47 32 47 61 0 35-47 57-56 61z" horiz-adv-x="1000" />

<glyph glyph-name="metrics-strategy" unicode="&#xe896;" d="M813-150c-4 0-7 2-10 3-8 6-178 147-178 278 0 103 84 188 188 188s187-85 187-188c0-131-170-272-178-278-3-1-6-3-9-3z m0 438c-86 0-157-71-157-157 0-100 121-214 157-245 35 31 156 145 156 245 0 86-71 157-156 157z m0-250c-52 0-94 42-94 93s42 94 94 94 93-42 93-94-42-93-93-93z m0 156c-35 0-63-28-63-63s28-62 63-62 62 28 62 62-28 63-62 63z m-625 187c-4 0-7 2-10 3-8 7-178 147-178 279 0 103 84 187 188 187s187-84 187-187c0-132-170-272-178-279-3-1-6-3-9-3z m0 438c-86 0-157-71-157-156 0-100 121-215 157-246 35 31 156 146 156 246 0 85-71 156-156 156z m0-250c-52 0-94 42-94 94s42 93 94 93 93-42 93-93-42-94-93-94z m0 156c-35 0-63-28-63-62s28-63 63-63 62 28 62 63-28 62-62 62z m676-286l-36-36v150c0 69-56 125-125 125h-297v-31h297c52 0 94-42 94-94v-150l-36 36-22-22 63-62c3-3 7-5 11-5s7 2 10 5l63 62-22 22z m-567-386c-52 0-94 42-94 94v150l36-36 22 22-63 62c-6 7-15 7-21 0l-63-62 22-22 36 36v-150c0-69 56-125 125-125h297v31h-297z m156 313h-31v-32h31v32z m63 0h-32v-32h32v32z m62 0h-31v-32h31v32z" horiz-adv-x="1000" />

<glyph glyph-name="metrics-track" unicode="&#xe897;" d="M156 484l-58 58 22 22 36-36 52 52 22-22-74-74z m282 100h-157v-31h157v31z m93-62h-250v-31h250v31z m-301-120l-22 21-52-51-36 36-22-22 58-58 74 74z m395 26h-344v-31h344v31z m-219-62h-125v-32h125v32z m219-94h-344v-31h344v31z m-156-63h-188v-31h188v31z m31-93h-219v-32h219v32z m125-63h-344v-31h344v31z m344 656v-265h-31v234h-32v-719c0-3 0-4-1-7l-47-94c-3-5-8-8-14-8s-11 3-14 8l-47 94c-2 3-2 4-2 7v797c0 8 8 16 16 16v78h94v-78c7 0 15-8 15-16v-47h63z m-141 63h31v47h-31v-47z m-15-31v-32h62v32h-62z m62-719h-62v-60l31-62 31 62v60z m0 62h-62v-31h62v31z m0 63h-62v-31h62v31z m0 62h-62v-31h62v31z m0 63h-62v-31h62v31z m0 406h-62v-375h62v375z m-250-312h-187v-32h187v32z m0 218h-156v-31h156v31z m0-468h-94v-32h94v32z m94 593v-843c0-8-8-16-16-16h-687c-8 0-16 8-16 16v968c0 8 8 16 16 16h562c5 0 8-2 11-5l125-125c3-3 5-6 5-11z m-125 16h72l-72 72v-72z m94-31h-110c-8 0-15 8-15 15v110h-532v-938h657v813z m-563 94h-31v-32h31v32z m63 0h-32v-32h32v32z m62 0h-31v-32h31v32z m250-63h-406v-31h406v31z m-286-464l-22 22-36-36-36 36-22-22 36-36-36-36 22-22 36 36 36-36 22 22-36 36 36 36z m0-156l-22 22-36-36-36 36-22-22 36-36-36-36 22-22 36 36 36-36 22 22-36 36 36 36z" horiz-adv-x="969" />

<glyph glyph-name="metrics-ux" unicode="&#xe898;" d="M688 319v-63h-32v63c0 17-14 31-31 31v31c34 0 63-28 63-62z m-141 94v-32c17 0 31-14 31-31v-78h31v78c0 34-28 63-62 63z m187-438v-31c18 0 32-14 32-32v-62h-32v62h-296v-62h-32v62c0 18 14 32 32 32v26l-91 121c-2 1-2 3-3 4-24 88-52 185-60 197-9 11-12 27-6 42 8 19 28 32 50 32 39 0 58-47 61-57l17-34v155c-39 22-62 64-62 108 0 68 56 125 125 125s125-57 125-125c0-44-24-86-63-108v-142h-31v250c0 17-14 31-31 31s-31-14-31-31v-329c0-7-8-15-16-15-6 0-11 3-14 8l0 1-47 92c0 0 0 2-2 2-3 9-15 36-31 36-12 0-19-6-20-13-2-1-2-6 0-7 9-10 31-80 65-208l93-124c1-3 3-6 3-9v-31h234v31c0 12 5 28 10 48 9 36 21 86 21 155v109c0 18-14 32-31 32v31c35 0 63-28 63-63v-109c0-73-14-127-24-162-4-15-8-29-8-38z m-328 492v71c0 34 28 62 63 62s62-28 62-62v-71c21 17 32 42 32 71 0 51-43 93-94 93s-94-42-94-93c0-27 13-52 31-71z m250 71c0 103-84 187-187 187-103 0-188-84-188-187 0-36 11-72 30-102l27 17c-16 25-25 55-25 85 0 85 70 156 156 156 86 0 156-71 156-156 0-30-9-60-25-86l27-18c18 32 29 68 29 104z m-187 250c-138 0-250-113-250-250h31c0 120 98 218 219 218s219-98 219-218h31c0 137-113 250-250 250z m437 62h-875c-17 0-31-14-31-31v-563c0-17 14-31 31-31h203v31h-140v532h-31v-532h-32v563h813v-531h31v531h31v-563h-109v-31h109c17 0 32 14 32 31v563c0 17-15 31-32 31z" horiz-adv-x="938" />

<glyph glyph-name="metrics-growth" unicode="&#xe899;" d="M1017-150h-967v183h33v-150h900v600h34v-633z m-934 967h900v-134h34v167h-967v-617h33v584z m984-234c0-36-30-66-67-66-12 0-23 3-33 10l-244-244c7-10 10-21 10-33 0-37-30-67-66-67s-67 30-67 67c0 8 2 15 3 22l-153 155c-10-7-22-10-33-10s-24 3-34 10l-260-260c7-10 10-22 10-34 0-36-30-66-66-66s-67 30-67 66 30 67 67 67c11 0 23-3 33-10l260 260c-7 10-10 22-10 33 0 37 30 67 67 67s66-30 66-67c0-11-3-23-10-33l150-148c12 10 27 16 44 16 11 0 23-3 33-10l243 242c-6 10-10 22-10 33 0 37 30 67 67 67s67-30 67-67z m-967-450c0 19-15 34-33 34s-34-15-34-34 15-33 34-33 33 15 33 33z m350 350c0 19-15 34-33 34s-34-15-34-34 15-33 34-33 33 15 33 33z m250-233c0 18-15 33-33 33s-34-15-34-33 15-33 34-33 33 15 33 33z m333 333c0 19-15 34-33 34s-33-15-33-34 15-33 33-33 33 15 33 33z m-850 167h-33v-33h33v33z m0-67h-33v-33h33v33z m-33-633h-33v-133h33v133z m67 133h-34v-266h34v266z m400-16h-34v-250h34v250z m66-17h-33v-233h33v233z m67 17h-33v-250h33v250z m67 133h-34v-383h34v383z m66 67h-33v-450h33v450z m67 66h-33v-516h33v516z m-667-183h-33v-333h33v333z m67 67h-33v-400h33v400z m200-34h-33v-366h33v366z m-67 67h-33v-433h33v433z m-66 33h-34v-466h34v466z m466 367h-433v-33h433v33z m-466 0h-200v-33h200v33z m300-67h-500v-33h500v33z" horiz-adv-x="1067" />

<glyph glyph-name="growth-develop" unicode="&#xe89a;" d="M625-150h-375v31h375v-31z m-472 394l0 0c2-3 3-5 5-6-2 1-3 4-5 6z m16-17c1-2 4-5 6-7l0 0c-2 3-5 5-6 7z m612 248c0-206-168-375-375-375-100 0-190 39-258 103-4 5-10 10-15 16-63 65-102 156-102 256 0 206 169 375 375 375 100 0 191-39 258-103 0 0 0 0 0 0 5-5 8-8 13-13 0 0 0 0 0 0 65-68 104-159 104-259z m-125 236c2-2 2-3 3-5l-120-120c39-38 80-69 122-94 36 85 37 164-2 214l0 0c0 2-1 3-3 5z m-404-103c-36-38-66-80-88-122 45-27 89-61 131-100l89 89-132 133z m154-111l89 89c-40 42-73 86-100 131-40-22-82-50-120-87l131-133z m-89-133c41-42 74-86 100-131 42 22 83 51 122 87l-133 133-89-89z m244-22c36 39 66 80 87 121-45 26-89 59-131 100l-89-88 133-133z m77 386c-25 20-58 30-96 30s-78-10-120-28c25-42 56-83 94-122l122 120c1 0 3-1 4-3-1 2-3 3-4 3l0 0z m-257 89c8-20 16-40 27-61 48 22 97 32 140 32-43 20-92 31-142 31-8 0-17 0-25-2z m-206-89l77-76c40 39 84 70 128 92-13 23-22 47-30 70-67-11-127-42-175-86z m-108-197c24-8 47-17 71-29 23 43 54 87 92 128l-77 76c-44-48-75-108-86-175z m56-58c-20 11-40 19-60 27 0-9 0-17 0-25 0-50 10-98 31-141 0 24 3 49 9 75 5 21 11 43 20 64z m35-235c-2 1-3 4-5 6l120 120c-39 38-79 69-121 94-8-19-14-38-19-56-16-64-8-121 20-158l0 0c2-3 3-5 5-6z m175-36c19 4 37 11 56 18-25 43-56 83-94 122l-120-120c-2 1-5 3-6 5 1-2 4-5 6-7l0 0c38-28 92-34 158-18z m98-69c-6 20-15 40-26 61-22-10-44-17-64-22-25-6-49-9-71-9h-4c43-21 90-32 140-32 8 0 16 0 25 2z m207 89l-77 76c-39-37-83-68-128-92 12-23 22-47 30-70 67 11 128 42 175 86z m107 197c-23 8-47 17-70 29-22-43-53-87-92-128l76-76c44 47 75 108 86 175z m3 31c0 8 2 17 2 25 0 52-11 98-31 142 0-1 0-3 0-4 0-43-11-90-31-136 20-11 42-19 60-27z m-110 278l0 0c1 0 3-1 4-3-1 2-3 3-4 3z m18-17c2-2 2-3 3-5l0 0c0 2-1 3-3 5z m-508-508c-3 2-4 5-7 6-3 4-5 5-8 8 6-4 11-9 15-14z m27 19l0 0c-3 1-5 3-6 5 1-2 4-4 6-5z m484 484l0 0c0 2-1 3-3 5 2-2 3-3 3-5z m18 28c-5 5-8 8-13 13 3-3 5-5 8-6 1-3 3-5 5-7z m-35-9c-1 2-3 2-4 3l0 0c1 0 3-1 4-3z m-484-487c-2 1-3 3-5 6l0 0c2-2 3-5 5-6z m717-357v-31h-203c-8 0-16 8-16 16v78h-437v-78c0-8-8-16-16-16h-203v31h188v78c0 8 7 16 15 16h188v63c-103 3-202 45-282 118l-20-20-22 22 31 31c7 6 16 6 22 0 78-78 180-120 286-120 224 0 407 183 407 406 0 108-43 209-121 286-3 3-4 6-4 11 0 5 1 8 4 11l31 31 22-22-20-20c77-81 119-186 119-297 0-214-155-394-360-430v-70h188c8 0 16-8 16-16v-78h187z m-453 94h31v66c-11-2-20-2-31-2v-64z" horiz-adv-x="875" />

<glyph glyph-name="growth-excellence" unicode="&#xe89b;" d="M477 355c-5 3-8 8-13 11 5-3 9-8 13-11z m242-5l11-6c1 1 3 3 4 4-4 2-11 2-15 2z m281 344v-47c0-144-102-199-183-244-26-14-50-28-67-40-2-2-3-4-5-5-4-3-7-8-12-11-3 3-10 3-14 3l11-6 3-2c1 2 3 3 3 6 27-7 45-31 45-59 0-12-4-25-11-34 25-8 43-32 43-60s-18-50-43-59c7-9 11-22 11-34 0-24-12-43-29-54 7-12 14-26 14-42 0-15-7-31-18-42 11-9 18-22 18-36v-31c0-27-21-47-47-47h-219c-27 0-47 20-47 47v31c0 5 2 11 3 16h-65c-3 0-5 0-8 1l-58 30h-44v31h47c3 0 5 0 8-1l59-30h308c17 0 31 14 31 31s-14 32-31 32h-15v31h31c17 0 31 14 31 31s-14 31-31 31h-31v32h62c17 0 31 14 31 31s-14 31-31 31h-62v31h31c17 0 31 14 31 32s-14 31-31 31h-235v26c0-1 2-1 2-3l3 2c-1 1-3 3-5 4-3 2-4 4-7 7 0 0 0 0 0 0-4 4-8 8-13 11 0 0 0 0 0 0-16 12-37 25-62 37-82 45-183 100-183 244v47c0 8 8 15 15 15h63c8 0 16-7 16-15v-47h-32v31h-31v-31c0-119 80-169 153-209-33 51-59 120-59 209 0 126 31 192 33 195 3 5 7 8 14 8h437c6 0 11-3 14-8 2-3 33-67 33-179 0-99-28-172-62-227 75 41 156 91 156 211v31h-31v-31h-32v47c0 8 8 15 16 15h62c8 0 16-7 16-15z m-266-766c0 8-7 16-15 16h-219c-8 0-16-8-16-16v-31c0-8 8-16 16-16h219c8 0 15 8 15 16v31z m110 735c0 81-19 135-27 156h-415c-8-21-27-78-27-172 0-134 69-219 117-263 0 0 2-1 2-1 20-17 36-28 42-31h148c8 4 24 15 44 34 0 0 0 0 0 0 49 42 116 131 116 277z m-458-293l-78-78c-3-3-6-4-11-4h-47v-329c0-7-8-15-16-15h-234v31h63v313h-63v31h291l73 73 22-22z m-167-82h-125v-313h125v313z m-31-250h-32v-32h32v32z m296 310v-3c0-1 2-1 2-3l3 2c-1 1-3 3-5 4z m250 0c-4 2-11 2-15 2l11-6 3-2c1 2 3 3 3 6 0 0-2 0-2 0z m-37 177c5 5 6 11 5 17l-27 67 53 39c5 5 8 11 5 18-2 7-8 12-14 12h-67l-27 69c-3 6-9 9-16 9s-12-3-14-9l-28-69h-67c-6 0-12-5-14-11-2-6 0-14 5-17l53-39-27-67c-3-6 0-14 5-17 5-5 12-5 19-2l70 42 70-42c0-3 3-3 7-3 3 0 7 1 9 3z m-95 73l-39-23 14 34c3 7 0 14-5 19l-25 19h31c6 0 13 3 14 9l17 42 18-42c3-6 7-9 14-9h31l-25-19c-6-5-8-12-5-19l14-34-39 23c-1 2-4 2-8 2s-6 0-7-2z m132-250c-4 2-11 2-15 2l11-6 3-2c1 2 3 3 3 6 3 4 6 8 9 11-3-4-7-7-11-11z m-250 0c-3 2-4 4-7 7 3-3 4-7 7-8 0-2 2-2 2-3l3 1c-1 0-3 2-5 3z" horiz-adv-x="1000" />

<glyph glyph-name="growth-plan" unicode="&#xe89c;" d="M500 663c-52 0-94 42-94 93s42 94 94 94 94-42 94-94-42-93-94-93z m0 156c-34 0-62-28-62-63s28-62 62-62c34 0 63 28 63 62s-29 63-63 63z m-406-156c-52 0-94 42-94 93s42 94 94 94 94-42 94-94-43-93-94-93z m0 156c-35 0-63-28-63-63s28-62 63-62 62 28 62 62-28 63-62 63z m594-297c0 61-49 109-110 109h-156c-61 0-109-48-109-109v-125h31v125c0 44 34 78 78 78h156c44 0 78-34 78-78v-125h32v125z m218 141c-51 0-93 42-93 93s42 94 93 94 94-42 94-94-42-93-94-93z m0 156c-34 0-62-28-62-63s28-62 62-62 63 28 63 62-28 63-63 63z m-204-960l106 257h98c52 0 94 42 94 93v360c0 34-28 62-62 62h-32c-68 0-125-56-125-125v-109h32v109c0 52 42 94 93 94h32c17 0 31-14 31-31v-360c0-34-28-62-63-62h-109c-6 0-13-3-14-9l-106-257h-21c-43 0-47 39-47 47v313h-31v-313c0-26 16-78 78-78h32c6 0 12 3 14 9z m-186 382h-32v-391h32v391z m0 328h-32v-31h32v31z m0-63h-32v-31h32v31z m297-140h-544l-50 39v101c0 69-56 125-125 125h-31c-35 0-63-28-63-62v-360c0-51 42-93 94-93h98l106-257c2-6 8-9 15-9h31c62 0 78 52 78 78v313c0 4-2 9-6 12l-25 19h422v94z m-513-63h-81v31h40l41-31z m91-375c0-8-3-47-47-47h-21l-106 257c-1 6-8 9-14 9h-109c-35 0-63 28-63 62v360c0 17 14 31 32 31h31c51 0 94-42 94-94v-109c0-5 1-9 6-13l25-18h-31v-94h153l50-39v-305z m390 375h-431l-41 31h472v-31z" horiz-adv-x="1000" />

<glyph glyph-name="growth-team" unicode="&#xe89d;" d="M750 444c0 137-112 250-250 250s-250-113-250-250c0-97 47-178 125-214v-52h-31v-31h31v-31h-31v-32h31v-31h-31v-31h86l31-47h80l31 47h84v31h-31v31h31v32h-31v31h31v31h-31v52c78 36 125 117 125 214z m-156-391h-39l-32-47h-45l-31 47h-41v31h188v-31z m0 63h-188v31h188v-31z m9 139l-9-3v-74h-188v74l-9 4c-72 27-116 100-116 188 0 120 99 219 219 219s219-99 219-219c0-88-44-161-116-189z m53 204c-8 79-75 141-156 141s-148-62-156-141h-31v-31h31c8-78 75-140 156-140s148 62 156 140h32v31h-32z m-156 110c64 0 116-49 123-110h-35l-52-51-63 125-73-74h-23c7 61 59 110 123 110z m0-250c-64 0-116 48-123 109h36l51 52 63-125 73 73h23c-7-61-59-109-123-109z m-439 197l-30 11c75 193 263 323 469 323h38l-105-105-22 22 50 50c-178-15-336-133-400-301z m939-203l-105 104 22 22 50-50c-15 178-133 336-301 400l11 30c193-75 323-263 323-469v-37z m-500-463h-37l104 105 22-22-50-50c178 15 334 133 399 300l29-11c-73-192-261-322-467-322z m-178 33c-192 73-322 261-322 467v38l105-105-22-22-50 50c15-178 133-334 300-399l-11-29z" horiz-adv-x="1000" />

<glyph glyph-name="growth-convert" unicode="&#xe89e;" d="M931 729v-53c-95 110-233 174-379 174-252 0-462-184-495-433-33-5-57-32-57-67 0-38 31-69 69-69s69 31 69 69c0 31-19 57-47 66 31 229 228 400 461 400 141 0 274-64 362-173h-69v-34h103c9 0 18 8 18 17v103h-35z m-828-379c0-19-15-34-34-34s-34 15-34 34 15 35 34 35 34-16 34-35z m764-40l-57 40 57 40c5 3 9 10 7 17-5 31-15 60-29 88-4 7-9 10-16 10l-69-2 25 66c1 7 0 14-6 19-22 22-46 40-74 53-7 4-14 2-19-1l-55-43-19 65c-2 7-7 10-14 12-34 5-57 5-91 0-7 0-12-5-14-12l-19-65-55 43c-5 3-12 5-19 1-28-13-52-32-74-53-5-5-7-12-5-19l24-66-69 2c-7 0-14-3-16-10-13-28-22-57-29-88-2-7 2-14 7-17l55-40-57-40c-5-3-8-10-7-17 6-31 16-60 30-88 3-7 8-10 15-10l69 2-24-66c-2-7 0-14 5-19 23-22 47-40 74-53 7-4 14-2 19 1l55 43 19-65c2-7 7-10 14-12 17-2 31-4 47-4 14 0 29 2 46 4 7 0 12 5 14 12l19 65 55-43c5-3 12-5 19-1 28 13 52 32 74 53 6 5 7 12 6 17l-25 66 69-2c7 0 14 4 16 10 14 28 24 57 29 88 2 9-2 16-7 19z m-48-79l-83 2c-7 0-10-2-14-7-3-5-3-10-1-16l27-77c-15-14-31-26-48-36l-65 51c-6 4-11 5-16 4-5-2-10-7-12-12l-24-80c-23-1-38-1-61 0l-24 80c-1 5-5 10-12 12-5 1-12 0-15-4l-66-51c-17 10-34 22-48 36l28 77c1 6 1 12-2 16-4 5-9 7-14 7l-83-2c-8 19-14 38-19 57l69 47c5 3 7 8 7 13s-3 11-7 14l-69 47c5 20 11 39 19 57l83-2c5 0 12 2 14 7 3 5 3 10 2 15l-28 78c15 14 31 26 48 36l66-52c5-3 10-5 15-3 5 2 11 7 12 12l24 79c23 2 38 2 61 0l24-79c2-5 5-10 12-12 5-2 12 0 16 3l65 52c17-10 35-22 48-36l-27-78c-2-5-2-12 1-15 4-5 9-7 14-7l83 2c9-19 14-38 19-57l-69-47c-5-3-7-9-7-14s4-10 7-13l69-47c-3-19-10-38-19-57z m-698-71h-35v35h35v-35z m896 345h-34v35h34v-35z m18-86c-38 0-69-31-69-69 0-31 19-57 46-65-31-230-226-401-460-401-142 0-274 64-362 173h69v34h-104c-8 0-17-8-17-17v-103h34v53c95-110 233-174 380-174 251 0 462 185 495 433 32 5 56 34 56 67 0 38-31 69-68 69z m0-103c-19 0-35 15-35 34s16 35 35 35 34-16 34-35-16-34-34-34z m-414-18c0-32-23-58-52-67v-36h-34v36c-30 7-52 35-52 67h34c0-19 16-34 35-34s34 15 34 34c0 12-24 30-41 37-10 5-62 29-62 67 0 33 22 58 52 67v36h34v-36c29-7 52-34 52-67h-35c0 19-15 34-34 34s-35-15-35-34c0-11 23-28 42-36 10-6 62-30 62-68z m69 35h-35v34h35v-34z m-242 0h-34v34h34v-34z" horiz-adv-x="1103" />

<glyph glyph-name="demo-practices" unicode="&#xe89f;" d="M817-117v4l-75 196h258v567h-33v-467h-867v467h-33v-567h258l-75-196v-4h-250v-33h1067v33h-250z m-717 234v33h867v-33h-867z m417-234h-232l77 200h155v-200z m33 0v200h155l77-200h-232z m517 800h-1067v100h407l33 67h187l33-67h407v-100z m-1034 34h1000v33h-393l-33 67h-147l-33-67h-394v-33z m284-450c-74 0-134 60-134 133s60 133 134 133h16v-116h117v-17c0-73-60-133-133-133z m-17 231c-47-8-83-48-83-98 0-55 45-100 100-100 50 0 90 37 98 83h-115v115z m217-48h-150v150h16c74 0 134-60 134-133v-17z m-117 33h82c-7 42-40 75-82 82v-82z m183 267h-100v33h100v-33z m300-300h-300v33h300v-33z m0-67h-300v34h300v-34z m0-66h-300v33h300v-33z m-200 216h-33v34h33v-34z m67 0h-33v34h33v-34z m67 0h-34v34h34v-34z" horiz-adv-x="1067" />

<glyph glyph-name="demo-strategy" unicode="&#xe8a0;" d="M219 303h-31v406h31v-406z m515 141v125c0 34-28 62-62 62h-16c-34 0-62-28-62-62v-125c0-35 28-63 62-63h16c34 0 62 28 62 63z m-62 156c17 0 31-14 31-31v-125c0-17-14-31-31-31h-16c-17 0-31 14-31 31v125c0 17 14 31 31 31h16z m-219-125h31c44 0 79 34 79 78s-35 78-79 78h-62v-250h31v94z m0 125h31c27 0 47-20 47-47s-20-47-47-47h-31v94z m547-344v-93h-31v56l-63-63v-275h94v-31h-1000v31h63v47c0 8 7 16 15 16h47v859c0 27 20 47 47 47s47-20 47-47v-31h515c5 0 8-2 11-5l250-250c7-6 7-15 0-22l-250-250c-3-3-6-4-11-4h-515v-297h87l136 136c6 6 16 6 22 0l83-83 130 130c6 6 15 6 21 0l68-68 181 182h-56v31h93c8 0 16-8 16-16z m-875-344h-31v-31h31v31z m31 860h32v31c0 8-8 16-16 16s-16-8-16-16v-31z m0-500h572l235 234-235 235h-572v-469z m32-360h-32v-31h32v31z m0 329h-32v-297h32v297z m62-329h-31v-31h31v31z m63 0h-32v-31h32v31z m62 57l-31-32v-56h31v88z m63 62l-32-31v-119h32v150z m62-31l-31 31v-150h31v119z m63-31l-5-5c-6-6-16-6-22 0l-5 5v-88h32v88z m62 62l-31-31v-119h31v150z m63 63l-32-31v-182h32v213z m62-63l-31 32v-182h31v150z m63 32l-32-32v-150h32v182z m62 62l-31-31v-213h31v244z m-500 475v31h-94v-31h32v-187h-32v-32h94v32h-31v187h31z" horiz-adv-x="1000" />

<glyph glyph-name="demo-tactical" unicode="&#xe8a1;" d="M725 850h-584v-531h31v500h531v-125h125v-375h31v397l-134 134z m9-125v72l72-72h-72z m125-875h-718v281h31v-250h656v188h31v-219z m-734 438c-2 0-5 0-6-2l-110-47c-6-1-9-8-9-14s3-12 9-14l110-47c1-1 4-1 6-1h703v-32h-219v-31h250v63h141v125h-875z m16-94h-13l-73 31 73 31h13v-62z m187 0h-156v62h156v-62z m31 0v62h469v-62h-469z m532 0h-32v62h32v-62z m78 0h-47v62h47v-62z m-422-188c-22 0-34 11-42 21-8 7-11 11-21 11s-12-4-20-11c-8-10-20-21-42-21-22 0-34 11-42 21-8 7-11 11-21 11-9 0-12-4-20-11-8-10-20-21-42-21s-34 11-42 21c-8 7-11 11-21 11v31c22 0 35-11 43-21 7-7 11-10 20-10s12 3 20 10c8 8 21 21 42 21 22 0 35-11 43-21 7-7 11-10 20-10 9 0 12 3 20 10 8 8 21 21 42 21s35-11 43-21c7-7 11-10 20-10v-32z m-281 688h-32v31h32v-31z m62 0h-31v31h31v-31z m63 0h-32v31h32v-31z m375-94h-532v31h532v-31z m0-62h-532v31h532v-31z m0-63h-532v31h532v-31z m0-62h-532v31h532v-31z m-282-63h-250v31h250v-31z m63-406h-313v31h313v-31z" horiz-adv-x="1000" />

<glyph glyph-name="demo-understand" unicode="&#xe8a2;" d="M683 798l-47 47c-6 7-16 7-22 0l-36-36-36 36c-6 7-15 7-22 0l-36-36-36 36c-6 7-15 7-21 0l-36-36-36 36c-7 7-16 7-22 0l-36-36-36 36c-6 7-16 7-22 0l-36-36-36 36c-6 7-15 7-22 0l-36-36-36 36c-6 7-15 7-21 0l-47-47c-3-3-5-6-5-10v-922c0-8 8-16 16-16h531c5 0 8 2 11 5l125 125c3 3 5 6 5 11v797c0 4-2 7-5 10z m-120-895v72h71l-71-72z m93 103h-109c-8 0-16-8-16-15v-110h-500v900l32 32 35-36c7-7 16-7 22 0l36 36 36-36c6-7 16-7 22 0l36 36 36-36c6-7 16-7 22 0l36 36 36-36c6-7 15-7 22 0l36 36 35-36c7-7 16-7 22 0l36 36 36-36c6-7 16-7 22 0l36 36 31-32v-775z m-343 391h-157v31h157v-31z m-188 0h-31v31h31v-31z m188-63h-157v32h157v-32z m-188 0h-31v32h31v-32z m188-62h-157v31h157v-31z m-188 0h-31v31h31v-31z m188-63h-157v32h157v-32z m-188 0h-31v32h31v-32z m469 188h-156v31h156v-31z m-188 0h-31v31h31v-31z m188-63h-156v32h156v-32z m-188 0h-31v32h31v-32z m188-62h-156v31h156v-31z m-188 0h-31v31h31v-31z m188-63h-156v32h156v-32z m-188 0h-31v32h31v-32z m-93-62h-157v31h157v-31z m-188 0h-31v31h31v-31z m188-63h-157v32h157v-32z m-188 0h-31v32h31v-32z m719 766h-31c-35 0-63-28-63-62v-766c0-2 0-5 2-6l62-157c2-6 8-9 14-9s13 5 14 9l63 157c0 1 1 3 1 6v766c0 34-28 62-62 62z m0-812v640h31v-640h-31z m-63 750c0 17 14 31 32 31h31c17 0 31-14 31-31v-79h-94v79z m0-110h32v-640h-32v640z m47-770l-39 98h78l-39-98z m-297 676h-93v32h93v-32z m-328 125c-61 0-109-48-109-109s48-109 109-109 110 48 110 109-49 109-110 109z m0-187c-44 0-78 34-78 78s34 78 78 78 78-34 78-78-34-78-78-78z m47 94v-32h-31v-31h-31v31h-32v32h32v31h31v-31h31z m234-125c-61 0-109 48-109 109s48 109 109 109c61 0 110-48 110-109s-49-109-110-109z m0 187c-43 0-78-34-78-78s35-78 78-78 79 34 79 78-35 78-79 78z" horiz-adv-x="906" />

<glyph glyph-name="demo-pitch" unicode="&#xe8a3;" d="M453 147c-5 0-8 1-11 5l-203 203c-6 6-6 15 0 22l78 78c6 6 16 6 22 0l114-114 208 207c6 7 16 7 22 0l78-78c6-6 6-15 0-22l-297-296c-3-4-6-5-11-5z m-181 219l181-182 275 275-56 57-208-208c-6-6-16-6-22 0l-114 114-56-56z m244-391h-32v-31h32v31z m0 781h-32v-31h32v31z m-391-390h-31v-32h31v32z m781 0h-31v-32h31v32z m-406-516c-275 0-500 225-500 500 0 275 225 500 500 500 275 0 500-225 500-500 0-275-225-500-500-500z m0 969c-258 0-469-211-469-469s211-469 469-469 469 211 469 469-211 469-469 469z" horiz-adv-x="1000" />

</font>
</defs>
</svg>
